<svg width="40" height="42" viewBox="0 0 40 42" fill="none" xmlns="http://www.w3.org/2000/svg">
<path d="M21.7578 15.0918C21.377 14.9453 20.8789 14.7891 20.2637 14.6426C19.7461 14.5156 19.3359 14.3984 19.0527 14.291C18.7598 14.1836 18.5156 14.0371 18.3203 13.832C18.125 13.627 18.0273 13.3633 18.0273 13.0215C18.0273 12.7383 18.1055 12.4844 18.2715 12.2598C18.4375 12.0352 18.6719 11.8691 18.9648 11.752C19.2676 11.6348 19.6094 11.5762 20.0195 11.5762C20.5371 11.5762 20.9863 11.7031 21.3672 11.957C21.748 12.2109 22.0605 12.5527 22.2852 12.9824H22.3926C22.6074 12.9824 22.8125 12.8457 22.9004 12.6504C22.6172 12.0937 22.2363 11.6738 21.7383 11.3711C21.2988 11.1074 20.8008 10.9609 20.2441 10.9316V9.4082C20.2441 9.27148 20.1367 9.16406 20 9.16406C19.8633 9.16406 19.7559 9.27148 19.7559 9.4082V10.9316C19.3359 10.9609 18.9453 11.0391 18.6035 11.1855C18.1836 11.3613 17.8516 11.6152 17.6172 11.9473C17.373 12.2793 17.2559 12.6699 17.2559 13.1191C17.2559 13.6172 17.3828 14.0078 17.627 14.3008C17.8711 14.5937 18.1738 14.7988 18.5352 14.9355C18.8965 15.0723 19.3652 15.209 19.9707 15.3457C20.498 15.4727 20.918 15.5898 21.2305 15.6973C21.543 15.8145 21.8066 15.9805 22.0215 16.2148C22.2363 16.4395 22.3438 16.752 22.3438 17.123C22.3438 17.4648 22.2559 17.7578 22.0898 18.0215C21.9238 18.2754 21.6797 18.4805 21.3574 18.6172C21.0352 18.7637 20.6543 18.832 20.2051 18.832C19.5508 18.832 18.9941 18.666 18.5156 18.334C18.0469 18.002 17.7148 17.582 17.5391 17.0742L17.4609 17.0547C17.2168 17.0059 16.9727 17.1328 16.875 17.3574C17.0215 17.7773 17.2559 18.1484 17.5781 18.4707C17.9004 18.793 18.291 19.0566 18.75 19.2324C19.0625 19.3594 19.3945 19.4375 19.7461 19.4766V20.9512C19.7461 21.0879 19.8535 21.1953 19.9902 21.1953C20.127 21.1953 20.2344 21.0879 20.2344 20.9512V19.5059C20.791 19.5059 21.2793 19.4082 21.7188 19.2227C22.1484 19.0371 22.4902 18.7637 22.7441 18.3926C22.9883 18.0312 23.1152 17.5918 23.1152 17.0742C23.1152 16.5273 22.9785 16.0977 22.7148 15.7754C22.4609 15.4824 22.1387 15.248 21.7578 15.0918Z" fill="#5A55CA"/>
<path d="M38.3789 13.666L21.9336 0.726562C20.791 -0.171875 19.209 -0.171875 18.0664 0.726562L1.62109 13.666C0.859375 14.2617 0.429688 15.1602 0.429688 16.1172V38.8223C0.429688 40.541 1.83594 41.9473 3.55469 41.9473H11.9336C13.6523 41.9473 15.0586 40.541 15.0586 38.8223V28.6465C15.0586 27.6797 15.8496 26.8887 16.8164 26.8887H23.1738C24.1406 26.8887 24.9316 27.6797 24.9316 28.6465V38.8223C24.9316 40.541 26.3379 41.9473 28.0566 41.9473H36.4355C38.1543 41.9473 39.5605 40.541 39.5605 38.8223V16.1172C39.5703 15.1504 39.1309 14.2617 38.3789 13.666ZM38.2031 38.8223C38.2031 39.7891 37.4121 40.5801 36.4453 40.5801H28.0664C27.0996 40.5801 26.3086 39.7891 26.3086 38.8223V28.6465C26.3086 26.9277 24.9023 25.5215 23.1836 25.5215H16.8262C15.1074 25.5215 13.7012 26.9277 13.7012 28.6465V38.8223C13.7012 39.7891 12.9102 40.5801 11.9434 40.5801H3.55469C2.58789 40.5801 1.79688 39.7891 1.79688 38.8223V16.1172C1.79688 15.5703 2.04102 15.0723 2.4707 14.7402L18.916 1.80078C19.5605 1.29297 20.4492 1.29297 21.0938 1.80078L37.5391 14.7402C37.9688 15.0723 38.2129 15.5801 38.2129 16.1172V38.8223H38.2031Z" fill="#5A55CA"/>
<path d="M20 6.9375C15.4492 6.9375 11.748 10.6387 11.748 15.1895C11.748 19.7402 15.4492 23.4414 20 23.4414C24.5508 23.4414 28.252 19.7402 28.252 15.1895C28.252 10.6387 24.5508 6.9375 20 6.9375ZM20 22.0645C16.2012 22.0645 13.1152 18.9785 13.1152 15.1797C13.1152 11.3809 16.2012 8.30469 20 8.30469C23.7988 8.30469 26.8848 11.3906 26.8848 15.1895C26.8848 18.9883 23.7988 22.0645 20 22.0645Z" fill="#5A55CA"/>
</svg>
