<svg width="42" height="52" viewBox="0 0 42 52" fill="none" xmlns="http://www.w3.org/2000/svg">
<path d="M36.4219 51.252H5.57812C2.95312 51.252 0.833984 49.1191 0.833984 46.5078V5.49219C0.833984 2.86719 2.9668 0.748047 5.57812 0.748047H31.8691L41.1797 10.0586V46.5078C41.166 49.1328 39.0469 51.252 36.4219 51.252ZM5.57812 2.66211C4.01953 2.66211 2.74805 3.93359 2.74805 5.49219V46.5078C2.74805 48.0664 4.01953 49.3379 5.57812 49.3379H36.4219C37.9805 49.3379 39.252 48.0664 39.252 46.5078V10.8379L31.0762 2.66211H5.57812Z" fill="#5A55CA"/>
<path d="M40.209 11.3984H33.25C31.7324 11.3984 30.502 10.1679 30.502 8.65036V1.70505C30.502 1.32224 30.7344 0.96677 31.0898 0.816379C31.4453 0.665988 31.8555 0.74802 32.1289 1.02146L40.8789 9.77146C41.1523 10.0449 41.2344 10.455 41.084 10.8105C40.9473 11.166 40.6055 11.3984 40.209 11.3984ZM32.4297 4.0156V8.66403C32.4297 9.11521 32.7988 9.49802 33.2637 9.49802H37.9121L32.4297 4.0156Z" fill="#5A55CA"/>
<path d="M17.9922 21.7754H6.07031C5.53711 21.7754 5.11328 21.3516 5.11328 20.8184C5.11328 20.2852 5.53711 19.8613 6.07031 19.8613H17.9922C18.5254 19.8613 18.9492 20.2852 18.9492 20.8184C18.9492 21.3516 18.5254 21.7754 17.9922 21.7754Z" fill="#5A55CA"/>
<path d="M35.9297 21.7754H24.0078C23.4746 21.7754 23.0508 21.3516 23.0508 20.8184C23.0508 20.2852 23.4746 19.8613 24.0078 19.8613H35.9297C36.4629 19.8613 36.8867 20.2852 36.8867 20.8184C36.8867 21.3516 36.4492 21.7754 35.9297 21.7754Z" fill="#5A55CA"/>
<path d="M17.9922 26.957H6.07031C5.53711 26.957 5.11328 26.5332 5.11328 26C5.11328 25.4668 5.53711 25.043 6.07031 25.043H17.9922C18.5254 25.043 18.9492 25.4668 18.9492 26C18.9492 26.5332 18.5254 26.957 17.9922 26.957Z" fill="#5A55CA"/>
<path d="M35.9297 26.957H24.0078C23.4746 26.957 23.0508 26.5332 23.0508 26C23.0508 25.4668 23.4746 25.043 24.0078 25.043H35.9297C36.4629 25.043 36.8867 25.4668 36.8867 26C36.8867 26.5332 36.4492 26.957 35.9297 26.957Z" fill="#5A55CA"/>
<path d="M17.9922 32.1387H6.07031C5.53711 32.1387 5.11328 31.7148 5.11328 31.1816C5.11328 30.6484 5.53711 30.2246 6.07031 30.2246H17.9922C18.5254 30.2246 18.9492 30.6484 18.9492 31.1816C18.9492 31.7148 18.5254 32.1387 17.9922 32.1387Z" fill="#5A55CA"/>
<path d="M35.9297 32.1387H24.0078C23.4746 32.1387 23.0508 31.7148 23.0508 31.1816C23.0508 30.6484 23.4746 30.2246 24.0078 30.2246H35.9297C36.4629 30.2246 36.8867 30.6484 36.8867 31.1816C36.8867 31.7148 36.4492 32.1387 35.9297 32.1387Z" fill="#5A55CA"/>
<path d="M17.9922 37.3066H6.07031C5.53711 37.3066 5.11328 36.8828 5.11328 36.3496C5.11328 35.8164 5.53711 35.3926 6.07031 35.3926H17.9922C18.5254 35.3926 18.9492 35.8164 18.9492 36.3496C18.9492 36.8828 18.5254 37.3066 17.9922 37.3066Z" fill="#5A55CA"/>
<path d="M35.9297 37.3066H24.0078C23.4746 37.3066 23.0508 36.8828 23.0508 36.3496C23.0508 35.8164 23.4746 35.3926 24.0078 35.3926H35.9297C36.4629 35.3926 36.8867 35.8164 36.8867 36.3496C36.8867 36.8828 36.4492 37.3066 35.9297 37.3066Z" fill="#5A55CA"/>
<path d="M17.9922 42.4883H6.07031C5.53711 42.4883 5.11328 42.0645 5.11328 41.5312C5.11328 40.998 5.53711 40.5742 6.07031 40.5742H17.9922C18.5254 40.5742 18.9492 40.998 18.9492 41.5312C18.9492 42.0645 18.5254 42.4883 17.9922 42.4883Z" fill="#5A55CA"/>
<path d="M35.9297 42.4883H24.0078C23.4746 42.4883 23.0508 42.0645 23.0508 41.5312C23.0508 40.998 23.4746 40.5742 24.0078 40.5742H35.9297C36.4629 40.5742 36.8867 40.998 36.8867 41.5312C36.8867 42.0645 36.4492 42.4883 35.9297 42.4883Z" fill="#5A55CA"/>
</svg>
