<svg width="44" height="44" viewBox="0 0 44 44" fill="none" xmlns="http://www.w3.org/2000/svg">
<path d="M40.1406 43.5844H4.19995C2.15464 43.5844 0.481201 41.911 0.481201 39.8657V3.92505C0.481201 1.87974 2.15464 0.206299 4.19995 0.206299H40.1406C42.1859 0.206299 43.8593 1.87974 43.8593 3.92505V39.8766C43.8593 41.9219 42.1968 43.5844 40.1406 43.5844ZM4.19995 2.17505C3.23745 2.17505 2.44995 2.96255 2.44995 3.92505V39.8766C2.44995 40.8391 3.23745 41.6266 4.19995 41.6266H40.1406C41.1031 41.6266 41.8906 40.8391 41.8906 39.8766V3.92505C41.8906 2.96255 41.1031 2.17505 40.1406 2.17505H4.19995Z" fill="#5A55CA"/>
<path d="M12.6 15.847H9.19841C8.26873 15.847 7.51404 15.0923 7.51404 14.1626V10.761C7.51404 9.83135 8.26873 9.07666 9.19841 9.07666H12.6C13.5297 9.07666 14.2844 9.83135 14.2844 10.761V14.1626C14.2844 15.0923 13.5297 15.847 12.6 15.847ZM9.19841 9.50322C8.50935 9.50322 7.95154 10.061 7.95154 10.7501V14.1517C7.95154 14.8407 8.50935 15.3985 9.19841 15.3985H12.6C13.289 15.3985 13.8469 14.8407 13.8469 14.1517V10.7501C13.8469 10.061 13.289 9.50322 12.6 9.50322H9.19841Z" fill="#5A55CA"/>
<path d="M12.6 24.3453H9.19841C8.26873 24.3453 7.51404 23.5906 7.51404 22.6609V19.2593C7.51404 18.3296 8.26873 17.575 9.19841 17.575H12.6C13.5297 17.575 14.2844 18.3296 14.2844 19.2593V22.6609C14.2844 23.5906 13.5297 24.3453 12.6 24.3453ZM9.19841 18.0125C8.50935 18.0125 7.95154 18.5703 7.95154 19.2593V22.6609C7.95154 23.35 8.50935 23.9078 9.19841 23.9078H12.6C13.289 23.9078 13.8469 23.35 13.8469 22.6609V19.2593C13.8469 18.5703 13.289 18.0125 12.6 18.0125H9.19841Z" fill="#5A55CA"/>
<path d="M35.6124 11.5266H17.4015C17.1609 11.5266 16.964 11.3297 16.964 11.0891C16.964 10.8485 17.1609 10.6516 17.4015 10.6516H35.6124C35.8531 10.6516 36.0499 10.8485 36.0499 11.0891C36.0499 11.3297 35.8531 11.5266 35.6124 11.5266Z" fill="#5A55CA"/>
<path d="M26.5015 14.261H17.4015C17.1609 14.261 16.964 14.0641 16.964 13.8235C16.964 13.5829 17.1609 13.386 17.4015 13.386H26.5015C26.7421 13.386 26.939 13.5829 26.939 13.8235C26.939 14.0641 26.7421 14.261 26.5015 14.261Z" fill="#5A55CA"/>
<path d="M35.6124 20.0359H17.4015C17.1609 20.0359 16.964 19.839 16.964 19.5984C16.964 19.3578 17.1609 19.1609 17.4015 19.1609H35.6124C35.8531 19.1609 36.0499 19.3578 36.0499 19.5984C36.0499 19.839 35.8531 20.0359 35.6124 20.0359Z" fill="#5A55CA"/>
<path d="M33.6109 31.9688H23.1437C22.9031 31.9688 22.7062 31.7719 22.7062 31.5312C22.7062 31.2906 22.9031 31.0938 23.1437 31.0938H33.6109C33.8515 31.0938 34.0484 31.2906 34.0484 31.5312C34.0484 31.7719 33.8515 31.9688 33.6109 31.9688Z" fill="#5A55CA"/>
<path d="M31.5437 34.1016H25.2109C24.9703 34.1016 24.7734 33.9047 24.7734 33.6641C24.7734 33.4234 24.9703 33.2266 25.2109 33.2266H31.5437C31.7844 33.2266 31.9812 33.4234 31.9812 33.6641C31.9812 33.9047 31.7844 34.1016 31.5437 34.1016Z" fill="#5A55CA"/>
<path d="M26.5015 22.7703H17.4015C17.1609 22.7703 16.964 22.5734 16.964 22.3328C16.964 22.0921 17.1609 21.8953 17.4015 21.8953H26.5015C26.7421 21.8953 26.939 22.0921 26.939 22.3328C26.939 22.5734 26.7421 22.7703 26.5015 22.7703Z" fill="#5A55CA"/>
</svg>
