<svg width="58" height="45" viewBox="0 0 58 45" fill="none" xmlns="http://www.w3.org/2000/svg">
<path d="M19.5412 20.8363C14.6404 20.8363 10.3322 16.1918 9.93185 10.4902C9.72365 7.59141 10.6045 4.93281 12.4143 2.9789C14.208 1.05703 16.7225 0 19.5252 0C22.3119 0 24.8264 1.05703 26.6201 2.99492C28.4459 4.94883 29.3268 7.60742 29.1186 10.4742C28.7342 16.2078 24.426 20.8363 19.5412 20.8363ZM19.5412 2.2582C17.3631 2.2582 15.4252 3.05898 14.0639 4.51641C12.6865 6.00586 12.0139 8.07187 12.174 10.3301C12.4943 14.7984 15.8736 18.5941 19.5412 18.5941C23.2088 18.5941 26.5881 14.8145 26.9084 10.3301C27.0686 8.08789 26.3959 6.03789 25.0026 4.53242C23.6252 3.075 21.6873 2.2582 19.5412 2.2582Z" fill="#5A55CA"/>
<path d="M28.5261 43.2584H2.67689C1.8601 43.2584 1.09135 42.89 0.594861 42.2494C0.0663458 41.5607 -0.125841 40.6318 0.0823619 39.751C1.10736 35.667 3.62181 32.2717 7.38549 29.9494C10.7648 27.8514 15.073 26.6982 19.5253 26.6982C23.3531 26.6982 26.6042 27.3389 29.439 28.6361C29.9996 28.8924 30.2558 29.565 29.9835 30.1256C29.7273 30.6861 29.0546 30.9424 28.4941 30.6701C25.9476 29.501 23.0167 28.9404 19.5093 28.9404C12.8468 28.9404 4.3265 31.9193 2.22845 40.2955C2.18041 40.5197 2.21244 40.7279 2.32455 40.8721C2.40463 40.9682 2.50072 41.0162 2.64486 41.0162H28.4941C29.1187 41.0162 29.6152 41.5127 29.6152 42.1373C29.6152 42.7619 29.1347 43.2584 28.5261 43.2584Z" fill="#5A55CA"/>
<path d="M53.4624 44.0908H36.3897C35.4448 44.0908 34.676 43.3221 34.676 42.3771V25.3045C34.676 24.3596 35.4448 23.5908 36.3897 23.5908H53.4624C54.4073 23.5908 55.176 24.3596 55.176 25.3045V42.3771C55.176 43.3221 54.4073 44.0908 53.4624 44.0908ZM36.3897 24.8721C36.1495 24.8721 35.9573 25.0643 35.9573 25.3045V42.3771C35.9573 42.6174 36.1495 42.8096 36.3897 42.8096H53.4624C53.7026 42.8096 53.8948 42.6174 53.8948 42.3771V25.3045C53.8948 25.0643 53.7026 24.8721 53.4624 24.8721H36.3897Z" fill="#5A55CA"/>
<path d="M56.0089 24.8724H33.8433C32.8984 24.8724 32.1296 24.1036 32.1296 23.1587V22.7103C32.1296 21.7653 32.8984 20.9966 33.8433 20.9966H56.0089C56.9539 20.9966 57.7226 21.7653 57.7226 22.7103V23.1587C57.7226 24.1036 56.9539 24.8724 56.0089 24.8724ZM33.8433 22.2778C33.6031 22.2778 33.4109 22.47 33.4109 22.7103V23.1587C33.4109 23.3989 33.6031 23.5911 33.8433 23.5911H56.0089C56.2492 23.5911 56.4414 23.3989 56.4414 23.1587V22.7103C56.4414 22.47 56.2492 22.2778 56.0089 22.2778H33.8433Z" fill="#5A55CA"/>
<path d="M49.2664 31.0705H40.6019C39.673 31.0705 38.9363 30.3178 38.9363 29.4049C38.9363 28.492 39.673 27.7393 40.6019 27.7393H49.2664C50.1953 27.7393 50.932 28.492 50.932 29.4049C50.932 30.3178 50.1792 31.0705 49.2664 31.0705ZM40.6019 28.3799C40.0414 28.3799 39.5769 28.8443 39.5769 29.4049C39.5769 29.9654 40.0414 30.4299 40.6019 30.4299H49.2664C49.8269 30.4299 50.2914 29.9654 50.2914 29.4049C50.2914 28.8443 49.8269 28.3799 49.2664 28.3799H40.6019Z" fill="#5A55CA"/>
<path d="M36.9664 15.5029L54.6316 15.5029C54.9839 15.5029 55.2722 15.7912 55.2722 16.1436C55.2722 16.4959 54.9839 16.7842 54.6316 16.7842L36.9664 16.7842C36.614 16.7842 36.3257 16.4959 36.3257 16.1436C36.3257 15.7912 36.614 15.5029 36.9664 15.5029Z" fill="#5A55CA"/>
<path d="M37.5911 14.0296L33.9395 16.1437L37.5911 18.2417L37.5911 14.0296Z" fill="#5A55CA"/>
</svg>
