<svg width="58" height="42" viewBox="0 0 58 42" fill="none" xmlns="http://www.w3.org/2000/svg">
<path d="M38.6874 20.2734C36.3987 20.2734 34.1827 19.2441 32.4389 17.3793C30.7194 15.5387 29.6659 13.0684 29.4843 10.4285C29.2905 7.65547 30.1261 5.10039 31.8456 3.25977C33.5651 1.41914 35.987 0.414062 38.6874 0.414062C41.3636 0.414062 43.7854 1.43125 45.505 3.27187C47.2366 5.13672 48.0843 7.67969 47.8905 10.4285C47.6968 13.0562 46.6554 15.5266 44.9358 17.3672C43.1921 19.2441 40.9761 20.2734 38.6874 20.2734ZM38.6874 2.83594C36.6651 2.83594 34.8729 3.57461 33.6257 4.90664C32.3663 6.26289 31.7608 8.16406 31.9061 10.259C32.1968 14.4488 35.2483 17.8516 38.6874 17.8516C42.1264 17.8516 45.1659 14.4488 45.4686 10.259C45.614 8.18828 44.9964 6.28711 43.7249 4.93086C42.4776 3.57461 40.6854 2.83594 38.6874 2.83594Z" fill="#5A55CA"/>
<path d="M54.6477 41.5859H22.7273C21.9039 41.5859 21.141 41.2227 20.6324 40.5688C20.0996 39.8785 19.9059 38.9461 20.1238 38.0742C21.0926 34.1629 23.5145 30.9297 27.1109 28.7016C30.332 26.7035 34.4492 25.6016 38.6875 25.6016C43.0106 25.6016 47.0188 26.6551 50.2641 28.6531C53.8606 30.8691 56.2824 34.1266 57.2512 38.0863C57.4691 38.9703 57.2754 39.9027 56.7426 40.5809C56.234 41.2227 55.4711 41.5859 54.6477 41.5859ZM38.6875 28.0234C32.4391 28.0234 24.4348 30.8086 22.4852 38.6555C22.4367 38.8492 22.4852 38.9945 22.5457 39.0793C22.5941 39.1398 22.6426 39.1641 22.7273 39.1641H54.6477C54.7324 39.1641 54.7809 39.1398 54.8293 39.0793C54.8898 38.9945 54.9383 38.8492 54.8898 38.6555C52.9766 30.8086 44.9602 28.0234 38.6875 28.0234Z" fill="#5A55CA"/>
<path d="M15.8008 20.7578C11.9137 20.7578 8.49882 17.1008 8.17187 12.5961C8.01445 10.3074 8.71679 8.18828 10.1457 6.65039C11.5625 5.12461 13.5726 4.28906 15.7887 4.28906C17.9926 4.28906 19.9906 5.13672 21.4195 6.67461C22.8726 8.22461 23.575 10.3316 23.4055 12.6082C23.1027 17.1008 19.6758 20.7578 15.8008 20.7578ZM15.8008 6.71094C14.2629 6.71094 12.8824 7.28008 11.9258 8.30937C10.957 9.35078 10.4726 10.816 10.5937 12.4387C10.8238 15.6355 13.2094 18.348 15.8008 18.348C18.3922 18.348 20.7777 15.6477 21.0078 12.4387C21.1168 10.8402 20.6445 9.38711 19.6637 8.33359C18.6949 7.28008 17.3266 6.71094 15.8008 6.71094Z" fill="#5A55CA"/>
<path d="M16.6484 37.711H3.04954C2.31087 37.711 1.63274 37.3841 1.18469 36.8149C0.712428 36.2095 0.542897 35.386 0.736647 34.611C1.53587 31.4263 3.49758 28.7864 6.42805 26.97C9.04368 25.3474 12.3738 24.4634 15.8007 24.4634C18.7554 24.4634 21.2499 24.9478 23.4538 25.9649C24.0593 26.2435 24.3257 26.9579 24.0472 27.5755C23.7687 28.181 23.0542 28.4474 22.4366 28.1688C20.5597 27.3091 18.3921 26.8974 15.8007 26.8974C10.8964 26.8974 4.62376 29.077 3.09798 35.2044C3.08587 35.2528 3.08587 35.2771 3.09798 35.3013H16.6605C17.3265 35.3013 17.8714 35.8462 17.8714 36.5122C17.8714 37.1782 17.3144 37.711 16.6484 37.711Z" fill="#5A55CA"/>
</svg>
