<svg width="52" height="44" viewBox="0 0 52 44" fill="none" xmlns="http://www.w3.org/2000/svg">
<path d="M23.8988 43.7206C23.5508 43.7206 23.2285 43.5917 22.9836 43.3597C18.6523 39.2733 11.1242 38.719 4.34373 38.719C1.93318 38.719 0.115601 36.8112 0.115601 34.2847V4.50732C0.115601 3.10224 0.811694 1.7874 1.98474 0.988179C2.69373 0.511226 3.51873 0.266304 4.36951 0.279194C11.5496 0.304976 16.925 1.22021 20.8051 3.07646C22.0941 3.68232 23.2929 4.45576 24.3629 5.37099C24.9301 5.86084 25.2523 6.56982 25.2523 7.30458V42.3929C25.2523 42.728 25.1234 43.0632 24.8914 43.3081C24.6465 43.5659 24.3113 43.7077 23.9633 43.7206C23.9246 43.7206 23.9117 43.7206 23.8988 43.7206ZM4.30505 2.08388C3.8281 2.08388 3.37693 2.22568 2.97732 2.48349C2.30701 2.93466 1.9074 3.69521 1.9074 4.49443V34.2847C1.9074 35.8058 2.92576 36.9144 4.33083 36.9144C11.0855 36.9144 18.575 37.4558 23.4219 41.3616V7.30458C23.4219 7.08544 23.3316 6.8792 23.164 6.7374C22.2101 5.92529 21.1531 5.24209 20.0058 4.70068C16.3836 2.97334 11.2531 2.10966 4.33083 2.08388C4.33083 2.08388 4.31794 2.08388 4.30505 2.08388Z" fill="#5A55CA"/>
<path d="M28.0754 43.7077C27.3535 43.7077 26.7605 43.1147 26.7605 42.3929V7.29169C26.7605 6.55693 27.0828 5.84795 27.6371 5.3581C28.7199 4.42998 29.9316 3.65654 31.2078 3.05068C35.0621 1.20732 40.4375 0.292085 47.6433 0.253413C48.4812 0.240523 49.3062 0.485445 50.0152 0.962398C51.1883 1.74873 51.8843 3.06357 51.8843 4.48154V34.4651C51.8843 36.7983 49.9894 38.6933 47.6562 38.6933C47.6562 38.6933 47.6562 38.6933 47.6433 38.6933C35.2297 38.6933 31.1562 41.1554 28.9906 43.3081C28.7457 43.5659 28.4234 43.7077 28.0754 43.7077ZM47.6949 2.08388C47.682 2.08388 47.6691 2.08388 47.6562 2.08388C40.7211 2.10966 35.5906 2.97334 31.9812 4.70068C30.834 5.24209 29.7769 5.92529 28.8101 6.7374C28.6554 6.8792 28.5652 7.08545 28.5652 7.30459V41.2843C31.1691 39.1187 35.9515 36.9144 47.6433 36.9144C47.6433 36.9144 47.6433 36.9144 47.6562 36.9144C48.9969 36.9144 50.0797 35.8186 50.0797 34.4909V4.49443C50.0797 3.68232 49.6801 2.92177 49.0097 2.4706C48.623 2.21279 48.1719 2.08388 47.6949 2.08388Z" fill="#5A55CA"/>
<path d="M19.6449 16.2378C19.5418 16.2378 19.4258 16.212 19.3226 16.1476C18.6265 15.6964 17.8531 15.3097 17.0281 15.0132C14.3984 14.0464 10.6859 13.5694 5.69724 13.5565C5.37498 13.5565 5.11716 13.2987 5.11716 12.9765C5.11716 12.6542 5.37498 12.3964 5.69724 12.3964C10.8277 12.4093 14.6691 12.912 17.4277 13.9304C18.3429 14.2526 19.1937 14.678 19.9672 15.1808C20.2379 15.3612 20.3152 15.7222 20.1347 15.98C20.0187 16.1476 19.8383 16.2378 19.6449 16.2378Z" fill="#5A55CA"/>
<path d="M19.6449 20.1952C19.5418 20.1952 19.4258 20.1694 19.3226 20.105C18.6265 19.6538 17.8531 19.2671 17.0281 18.9706C14.3984 18.0038 10.6859 17.5269 5.69724 17.514C5.37498 17.514 5.11716 17.2561 5.11716 16.9339C5.11716 16.6116 5.37498 16.3538 5.69724 16.3538C10.8277 16.3667 14.6691 16.8694 17.4277 17.8878C18.3429 18.2101 19.1937 18.6354 19.9672 19.1382C20.2379 19.3186 20.3152 19.6796 20.1347 19.9374C20.0187 20.105 19.8383 20.1952 19.6449 20.1952Z" fill="#5A55CA"/>
<path d="M19.6449 24.1526C19.5418 24.1526 19.4258 24.1269 19.3226 24.0624C18.6265 23.6112 17.8531 23.2245 17.0281 22.928C14.3984 21.9612 10.6859 21.4843 5.69724 21.4714C5.37498 21.4714 5.11716 21.2136 5.11716 20.8913C5.11716 20.569 5.37498 20.3112 5.69724 20.3112C10.8277 20.3241 14.6691 20.8268 17.4277 21.8452C18.3429 22.1675 19.1937 22.5929 19.9672 23.0956C20.2379 23.2761 20.3152 23.637 20.1347 23.8948C20.0187 24.0495 19.8383 24.1526 19.6449 24.1526Z" fill="#5A55CA"/>
<path d="M19.6449 28.0972C19.5418 28.0972 19.4258 28.0714 19.3226 28.0069C18.6265 27.5558 17.8531 27.169 17.0281 26.8726C14.3984 25.9058 10.6859 25.4288 5.69724 25.4159C5.37498 25.4159 5.11716 25.1581 5.11716 24.8358C5.11716 24.5136 5.37498 24.2558 5.69724 24.2558C10.8277 24.2686 14.6691 24.7714 17.4277 25.7897C18.3429 26.112 19.1937 26.5374 19.9672 27.0401C20.2379 27.2206 20.3152 27.5815 20.1347 27.8393C20.0187 28.0069 19.8383 28.0972 19.6449 28.0972Z" fill="#5A55CA"/>
<path d="M42.4783 20.6878C42.1304 20.3175 41.7246 20.0529 41.2319 19.8677C40.7391 19.6825 40.1014 19.5238 39.3188 19.3386C38.6522 19.1799 38.1304 19.0476 37.7536 18.9418C37.3768 18.8095 37.058 18.6508 36.8261 18.4127C36.5652 18.1746 36.4493 17.8571 36.4493 17.4603C36.4493 17.1164 36.5652 16.8254 36.7681 16.5608C36.971 16.2963 37.2899 16.1111 37.6667 15.9524C38.0435 15.8201 38.5073 15.7407 39 15.7407C39.6667 15.7407 40.2464 15.8995 40.7391 16.1905C41.2319 16.4815 41.6377 16.8783 41.9275 17.4074H42.0725C42.3623 17.4074 42.5942 17.2487 42.7101 17.0106C42.3623 16.3757 41.8696 15.873 41.2319 15.5291C40.5942 15.1852 39.8696 15 39.058 15H39C38.3333 15 37.7536 15.1058 37.2029 15.3175C36.6522 15.5291 36.2464 15.8201 35.9275 16.1905C35.6087 16.5873 35.4638 17.037 35.4638 17.5661C35.4638 18.1481 35.6377 18.5979 35.9565 18.9418C36.2754 19.2857 36.6522 19.5238 37.1159 19.6825C37.5797 19.8413 38.1884 20 38.942 20.1587C39.6087 20.291 40.1594 20.4497 40.5652 20.582C40.971 20.7143 41.2899 20.9259 41.5797 21.1905C41.8406 21.455 41.9855 21.8254 41.9855 22.2487C41.9855 22.6455 41.8696 22.9894 41.6667 23.3069C41.4638 23.5979 41.1449 23.836 40.7391 23.9947C40.3333 24.1534 39.8406 24.2328 39.2609 24.2328C38.4203 24.2328 37.6957 24.0476 37.087 23.6508C36.4783 23.254 36.0725 22.7778 35.8406 22.1693L35.7536 22.1429C35.6957 22.1429 35.6667 22.1164 35.6087 22.1164C35.3478 22.1164 35.1159 22.2487 35 22.4868C35.1739 22.9894 35.4928 23.4127 35.8986 23.7831C36.3043 24.1534 36.8261 24.4709 37.4058 24.6825C37.8986 24.8677 38.4203 24.9735 39 25C39.087 25 39.2029 25 39.3188 25C40.0435 25 40.6812 24.8942 41.2319 24.6825C41.7826 24.4709 42.2174 24.1534 42.5362 23.7037C42.8551 23.2804 43 22.7513 43 22.1693C43 21.5608 42.8261 21.0582 42.4783 20.6878Z" fill="#5A55CA"/>
<path d="M39.5 15.5041C39.225 15.5041 39 15.7769 39 15.5041V13.4959C39 13.2231 39.225 13 39.5 13C39.775 13 40 13.2231 40 13.4959V15.5041C40 15.7769 39.775 15.5041 39.5 15.5041Z" fill="#5A55CA"/>
<path d="M39.5 27.0001C39.225 27.0001 39 26.777 39 26.5042V24.496C39 24.2232 39.225 24.4959 39.5 24.4959C39.775 24.4959 40 24.2232 40 24.496V26.5042C40 26.777 39.775 27.0001 39.5 27.0001Z" fill="#5A55CA"/>
</svg>
