<svg width="46" height="46" viewBox="0 0 46 46" fill="none" xmlns="http://www.w3.org/2000/svg">
<path d="M41.125 45.125H4.875C2.675 45.125 0.875 43.325 0.875 41.125V4.875C0.875 2.675 2.675 0.875 4.875 0.875H41.125C43.325 0.875 45.125 2.675 45.125 4.875V41.125C45.125 43.3375 43.3375 45.125 41.125 45.125ZM4.875 2.625C3.6375 2.625 2.625 3.6375 2.625 4.875V41.125C2.625 42.3625 3.6375 43.375 4.875 43.375H41.125C42.3625 43.375 43.375 42.3625 43.375 41.125V4.875C43.375 3.6375 42.3625 2.625 41.125 2.625H4.875Z" fill="#5A55CA"/>
<path d="M26.8499 15.1499H8.2749C7.7874 15.1499 7.3999 14.7624 7.3999 14.2749C7.3999 13.7874 7.7874 13.3999 8.2749 13.3999H26.8499C27.3374 13.3999 27.7249 13.7874 27.7249 14.2749C27.7249 14.7624 27.3374 15.1499 26.8499 15.1499Z" fill="#5A55CA"/>
<path d="M26.8499 20.45H8.2749C7.7874 20.45 7.3999 20.0625 7.3999 19.575C7.3999 19.0875 7.7874 18.7 8.2749 18.7H26.8499C27.3374 18.7 27.7249 19.0875 27.7249 19.575C27.7249 20.0625 27.3374 20.45 26.8499 20.45Z" fill="#5A55CA"/>
<path d="M26.8499 25.75H8.2749C7.7874 25.75 7.3999 25.3625 7.3999 24.875C7.3999 24.3875 7.7874 24 8.2749 24H26.8499C27.3374 24 27.7249 24.3875 27.7249 24.875C27.7249 25.3625 27.3374 25.75 26.8499 25.75Z" fill="#5A55CA"/>
<path d="M37.5125 34.175H27.75C27.2625 34.175 26.875 33.7875 26.875 33.3C26.875 32.8125 27.2625 32.425 27.75 32.425H37.5125C38 32.425 38.3875 32.8125 38.3875 33.3C38.3875 33.7875 37.9875 34.175 37.5125 34.175Z" fill="#5A55CA"/>
<path d="M35.275 15.1499H31.95C31.4625 15.1499 31.075 14.7624 31.075 14.2749C31.075 13.7874 31.4625 13.3999 31.95 13.3999H35.275C35.7625 13.3999 36.15 13.7874 36.15 14.2749C36.15 14.7624 35.7625 15.1499 35.275 15.1499Z" fill="#5A55CA"/>
<path d="M35.275 20.45H31.95C31.4625 20.45 31.075 20.0625 31.075 19.575C31.075 19.0875 31.4625 18.7 31.95 18.7H35.275C35.7625 18.7 36.15 19.0875 36.15 19.575C36.15 20.0625 35.7625 20.45 35.275 20.45Z" fill="#5A55CA"/>
<path d="M35.275 25.75H31.95C31.4625 25.75 31.075 25.3625 31.075 24.875C31.075 24.3875 31.4625 24 31.95 24H35.275C35.7625 24 36.15 24.3875 36.15 24.875C36.15 25.3625 35.7625 25.75 35.275 25.75Z" fill="#5A55CA"/>
</svg>
