<svg width="40" height="36" viewBox="0 0 40 36" fill="none" xmlns="http://www.w3.org/2000/svg">
<path d="M37.8793 0.371094H2.12075C1.17974 0.371094 0.419189 1.13164 0.419189 2.07266V4.3543C0.419189 5.29531 1.17974 6.05586 2.12075 6.05586H4.35083V6.06875V33.977C4.35083 34.918 5.11138 35.6785 6.05239 35.6785H33.9606C34.9016 35.6785 35.6622 34.918 35.6622 33.977V6.06875V6.05586H37.8922C38.8332 6.05586 39.5938 5.29531 39.5938 4.3543V2.07266C39.5809 1.13164 38.8204 0.371094 37.8793 0.371094ZM33.9735 6.06875V33.977C33.9735 33.9898 33.9606 34.0027 33.9477 34.0027H6.05239C6.0395 34.0027 6.02661 33.9898 6.02661 33.977V6.06875V6.05586L33.9735 6.06875C33.9735 6.05586 33.9735 6.06875 33.9735 6.06875ZM37.9051 4.3543C37.9051 4.36719 37.8922 4.38008 37.8793 4.38008H34.1668C34.0895 4.36719 34.0251 4.36719 33.9477 4.36719H6.05239C5.97505 4.36719 5.9106 4.36719 5.83325 4.38008H2.12075C2.10786 4.38008 2.09497 4.36719 2.09497 4.3543V2.07266C2.09497 2.05977 2.10786 2.04688 2.12075 2.04688H37.8793C37.8922 2.04688 37.9051 2.05977 37.9051 2.07266V4.3543Z" fill="#5A55CA"/>
<path d="M13.3227 15.7107H26.6902C28.0824 15.7107 29.2297 14.5764 29.2297 13.1713C29.2297 11.7791 28.0953 10.6318 26.6902 10.6318H13.3227C11.9305 10.6318 10.7832 11.7662 10.7832 13.1713C10.7832 14.5764 11.9176 15.7107 13.3227 15.7107ZM13.3227 11.5471H26.6902C27.5926 11.5471 28.3273 12.2818 28.3273 13.1842C28.3273 14.0865 27.5926 14.8213 26.6902 14.8213H13.3227C12.4203 14.8213 11.6855 14.0865 11.6855 13.1842C11.6855 12.2818 12.4203 11.5471 13.3227 11.5471Z" fill="#5A55CA"/>
</svg>
