<svg width="52" height="44" viewBox="0 0 52 44" fill="none" xmlns="http://www.w3.org/2000/svg">
<path d="M23.8988 43.7207C23.5508 43.7207 23.2285 43.5918 22.9836 43.3598C18.6523 39.2734 11.1242 38.7191 4.34373 38.7191C1.93318 38.7191 0.115601 36.8113 0.115601 34.2848V4.50742C0.115601 3.10234 0.811694 1.7875 1.98474 0.988277C2.69373 0.511324 3.51873 0.266402 4.36951 0.279292C11.5496 0.305074 16.925 1.22031 20.8051 3.07656C22.0941 3.68242 23.2929 4.45585 24.3629 5.37109C24.9301 5.86093 25.2523 6.56992 25.2523 7.30468V42.393C25.2523 42.7281 25.1234 43.0633 24.8914 43.3082C24.6465 43.566 24.3113 43.7078 23.9633 43.7207C23.9246 43.7207 23.9117 43.7207 23.8988 43.7207ZM4.30505 2.08398C3.8281 2.08398 3.37693 2.22578 2.97732 2.48359C2.30701 2.93476 1.9074 3.69531 1.9074 4.49453V34.2848C1.9074 35.8059 2.92576 36.9145 4.33083 36.9145C11.0855 36.9145 18.575 37.4559 23.4219 41.3617V7.30468C23.4219 7.08554 23.3316 6.87929 23.164 6.7375C22.2101 5.92539 21.1531 5.24218 20.0058 4.70078C16.3836 2.97343 11.2531 2.10976 4.33083 2.08398C4.33083 2.08398 4.31794 2.08398 4.30505 2.08398Z" fill="#5A55CA"/>
<path d="M28.0753 43.7077C27.3535 43.7077 26.7605 43.1147 26.7605 42.3929V7.29169C26.7605 6.55693 27.0828 5.84795 27.6371 5.3581C28.7199 4.42998 29.9316 3.65654 31.2078 3.05068C35.0621 1.20732 40.4375 0.292085 47.6433 0.253413C48.4812 0.240523 49.3062 0.485445 50.0152 0.962398C51.1882 1.74873 51.8843 3.06357 51.8843 4.48154V34.4651C51.8843 36.7983 49.9894 38.6933 47.6562 38.6933C47.6562 38.6933 47.6562 38.6933 47.6433 38.6933C35.2296 38.6933 31.1562 41.1554 28.9906 43.3081C28.7457 43.5659 28.4234 43.7077 28.0753 43.7077ZM47.6949 2.08388C47.682 2.08388 47.6691 2.08388 47.6562 2.08388C40.721 2.10966 35.5906 2.97334 31.9812 4.70068C30.8339 5.24209 29.7769 5.92529 28.8101 6.7374C28.6554 6.8792 28.5652 7.08545 28.5652 7.30459V41.2843C31.1691 39.1187 35.9515 36.9144 47.6433 36.9144C47.6433 36.9144 47.6433 36.9144 47.6562 36.9144C48.9968 36.9144 50.0796 35.8186 50.0796 34.4909V4.49443C50.0796 3.68232 49.68 2.92177 49.0097 2.4706C48.623 2.21279 48.1718 2.08388 47.6949 2.08388Z" fill="#5A55CA"/>
<path d="M19.6449 16.2379C19.5418 16.2379 19.4258 16.2121 19.3227 16.1477C18.6266 15.6965 17.8531 15.3098 17.0281 15.0133C14.3984 14.0465 10.6859 13.5695 5.69727 13.5566C5.375 13.5566 5.11719 13.2988 5.11719 12.9766C5.11719 12.6543 5.375 12.3965 5.69727 12.3965C10.8277 12.4094 14.6691 12.9121 17.4277 13.9305C18.343 14.2527 19.1937 14.6781 19.9672 15.1809C20.2379 15.3613 20.3152 15.7223 20.1348 15.9801C20.0188 16.1477 19.8383 16.2379 19.6449 16.2379Z" fill="#5A55CA"/>
<path d="M19.6449 20.1952C19.5418 20.1952 19.4258 20.1694 19.3227 20.1049C18.6266 19.6538 17.8531 19.267 17.0281 18.9706C14.3984 18.0038 10.6859 17.5268 5.69727 17.5139C5.375 17.5139 5.11719 17.2561 5.11719 16.9338C5.11719 16.6116 5.375 16.3538 5.69727 16.3538C10.8277 16.3667 14.6691 16.8694 17.4277 17.8877C18.343 18.21 19.1937 18.6354 19.9672 19.1381C20.2379 19.3186 20.3152 19.6795 20.1348 19.9374C20.0188 20.1049 19.8383 20.1952 19.6449 20.1952Z" fill="#5A55CA"/>
<path d="M19.6449 24.1527C19.5418 24.1527 19.4258 24.1269 19.3227 24.0625C18.6266 23.6113 17.8531 23.2246 17.0281 22.9281C14.3984 21.9613 10.6859 21.4843 5.69727 21.4714C5.375 21.4714 5.11719 21.2136 5.11719 20.8914C5.11719 20.5691 5.375 20.3113 5.69727 20.3113C10.8277 20.3242 14.6691 20.8269 17.4277 21.8453C18.343 22.1675 19.1937 22.5929 19.9672 23.0957C20.2379 23.2761 20.3152 23.6371 20.1348 23.8949C20.0188 24.0496 19.8383 24.1527 19.6449 24.1527Z" fill="#5A55CA"/>
<path d="M19.6449 28.0973C19.5418 28.0973 19.4258 28.0715 19.3227 28.007C18.6266 27.5559 17.8531 27.1691 17.0281 26.8727C14.3984 25.9059 10.6859 25.4289 5.69727 25.416C5.375 25.416 5.11719 25.1582 5.11719 24.8359C5.11719 24.5137 5.375 24.2559 5.69727 24.2559C10.8277 24.2687 14.6691 24.7715 17.4277 25.7898C18.343 26.1121 19.1937 26.5375 19.9672 27.0402C20.2379 27.2207 20.3152 27.5816 20.1348 27.8395C20.0188 28.007 19.8383 28.0973 19.6449 28.0973Z" fill="#5A55CA"/>
<path d="M34.5 20.5H43.5" stroke="#5A55CA" stroke-linecap="round"/>
<path d="M39 25L39 16" stroke="#5A55CA" stroke-linecap="round"/>
</svg>
