<svg width="62" height="38" viewBox="0 0 62 38" fill="none" xmlns="http://www.w3.org/2000/svg">
<path d="M34.4977 37.0085C28.9477 37.0085 23.7446 35.939 21.2731 35.3464C20.1168 35.0718 18.9317 34.9273 17.7321 34.9273H4.04497C1.92036 34.9273 0.200439 33.2074 0.200439 31.0828V21.0667C0.200439 18.9421 1.92036 17.2222 4.04497 17.2222H12.7458C14.3067 17.2222 15.7809 16.962 17.1106 16.4417C18.8739 15.7624 21.5766 15.0109 24.4817 15.2132C28.0372 15.4734 30.9567 17.0921 33.1825 20.0117C33.5004 20.4308 33.9918 20.6765 34.5122 20.6765H38.2555C40.4669 20.6765 42.4758 21.8038 43.4875 23.6105C43.6032 23.8128 43.6899 24.0152 43.7766 24.2175C43.9934 24.1742 44.2247 24.1308 44.4993 24.0874L53.3735 22.3964C54.5008 22.1796 55.5126 22.064 56.452 22.0496C57.3047 22.0351 58.0997 22.064 58.8079 22.1507C60.2965 22.3386 61.4528 23.4226 61.7418 24.8968C62.0309 26.3855 61.3805 27.8308 60.0508 28.5824C56.0329 30.866 48.2426 34.9128 41.334 36.3437C39.1083 36.8351 36.7668 37.0085 34.4977 37.0085ZM4.04497 19.2601C3.0477 19.2601 2.22388 20.0695 2.22388 21.0812V31.0972C2.22388 32.0945 3.03325 32.9183 4.04497 32.9183H17.7465C19.1051 32.9183 20.4493 33.0773 21.75 33.3953C25.0887 34.2046 33.645 35.9101 40.9293 34.3925C47.5633 33.0195 55.1368 29.0738 59.0536 26.848C59.7184 26.4722 59.8485 25.8074 59.7618 25.316C59.7184 25.0847 59.4872 24.3042 58.5477 24.1886C57.9407 24.1163 57.2469 24.0874 56.4954 24.1019C55.6715 24.1163 54.7754 24.2175 53.7637 24.4199C53.677 24.4343 46.4938 25.8074 44.0512 26.2699C43.95 26.8191 43.7043 27.3394 43.3141 27.7874C42.6782 28.5245 41.7532 28.9437 40.7704 28.9437H30.5665C30.0028 28.9437 29.5547 28.4956 29.5547 27.932C29.5547 27.3683 30.0028 26.9202 30.5665 26.9202H40.7559C41.1317 26.9202 41.5219 26.7468 41.7676 26.4578C41.8977 26.3132 42.1 25.9953 42.0422 25.5617L42.0278 25.5038C41.9844 25.2292 41.8833 24.9257 41.7098 24.6367C41.0594 23.466 39.7297 22.7433 38.2555 22.7433H34.5122C33.3559 22.7433 32.2575 22.1941 31.5637 21.2835C27.3723 15.7624 21.1575 17.0921 17.8333 18.3785C16.2579 18.9855 14.5524 19.289 12.7313 19.289H4.04497V19.2601Z" fill="#5A55CA"/>
<path d="M58.5767 17.0777H35.1771C34.2087 17.0777 33.4138 16.2828 33.4138 15.3144V2.71128C33.4138 1.74292 34.2087 0.947998 35.1771 0.947998H58.5767C59.5451 0.947998 60.34 1.74292 60.34 2.71128V15.3144C60.34 16.2828 59.5451 17.0777 58.5767 17.0777ZM35.1771 2.68237C35.1626 2.68237 35.1482 2.69683 35.1482 2.71128V15.3144C35.1482 15.3289 35.1626 15.3433 35.1771 15.3433H58.5767C58.5912 15.3433 58.6056 15.3289 58.6056 15.3144V2.71128C58.6056 2.69683 58.5912 2.68237 58.5767 2.68237H35.1771Z" fill="#5A55CA"/>
<path d="M46.8697 14.3749C43.9068 14.3749 41.5076 11.9612 41.5076 9.01274C41.5076 6.06431 43.9212 3.65063 46.8697 3.65063C49.8181 3.65063 52.2318 6.06431 52.2318 9.01274C52.2318 11.9612 49.8326 14.3749 46.8697 14.3749ZM46.8697 5.38501C44.8607 5.38501 43.2419 7.01821 43.2419 9.01274C43.2419 11.0073 44.8751 12.6405 46.8697 12.6405C48.8642 12.6405 50.4974 11.0073 50.4974 9.01274C50.4974 7.01821 48.8787 5.38501 46.8697 5.38501Z" fill="#5A55CA"/>
<path d="M59.4727 7.17729C56.5098 7.17729 54.1106 4.76362 54.1106 1.81519C54.1106 1.33823 54.5008 0.947998 54.9778 0.947998C55.4547 0.947998 55.845 1.33823 55.845 1.81519C55.845 3.82417 57.4782 5.44292 59.4727 5.44292C59.9497 5.44292 60.3399 5.83315 60.3399 6.31011C60.3399 6.78706 59.9497 7.17729 59.4727 7.17729Z" fill="#5A55CA"/>
<path d="M34.2666 7.17729C33.7896 7.17729 33.9342 6.87377 33.9342 6.39682C33.9342 5.91987 33.7896 5.44291 34.2666 5.44291C36.2756 5.44291 37.8943 3.80971 37.8943 1.81518C37.8943 1.33823 38.2845 1.4394 38.7615 1.4394C39.2385 1.4394 39.6287 1.33823 39.6287 1.81518C39.6431 4.77807 37.2295 7.17729 34.2666 7.17729Z" fill="#5A55CA"/>
<path d="M55.0501 16.7308C54.5298 16.7308 54.0239 16.7308 54.0239 16.2105C54.0239 13.2042 56.4665 10.7761 59.4583 10.7761C59.9786 10.7761 59.7618 11.3398 59.7618 11.8601C59.7618 12.3804 59.9786 12.655 59.4583 12.655C57.4927 12.655 55.9028 14.2593 55.9028 16.2105C55.9173 16.7308 55.5704 16.7308 55.0501 16.7308Z" fill="#5A55CA"/>
<path d="M38.7757 16.7308C38.2554 16.7308 37.8363 16.7308 37.8363 16.2105C37.8363 14.2449 36.232 12.655 34.2808 12.655C33.7605 12.655 34.0062 12.3371 34.0062 11.8167C34.0062 11.2964 33.7605 10.7761 34.2808 10.7761C37.2871 10.7761 39.7152 13.2187 39.7152 16.2105C39.7152 16.7308 39.2961 16.7308 38.7757 16.7308Z" fill="#5A55CA"/>
<path d="M46.75 11.25V6.75" stroke="#5A55CA"/>
<path d="M44.5 9L49 9" stroke="#5A55CA"/>
</svg>
