<svg width="44" height="36" viewBox="0 0 44 36" fill="none" xmlns="http://www.w3.org/2000/svg">
<path d="M41.6189 0.106445H2.38111C1.07947 0.106445 0.0230713 1.16285 0.0230713 2.46449V23.5925C0.0230713 24.8942 1.07947 25.9506 2.38111 25.9506H41.6189C42.9206 25.9506 43.977 24.8942 43.977 23.5925V2.46449C43.977 1.16285 42.9206 0.106445 41.6189 0.106445ZM1.72086 9.3028C5.67294 8.90665 8.82328 5.75631 9.21943 1.80423H34.7712C35.1673 5.75631 38.3177 8.90665 42.2697 9.3028V16.7448C38.3177 17.1409 35.1673 20.2913 34.7712 24.2434H9.21943C8.82328 20.2913 5.67294 17.1409 1.72086 16.7448V9.3028ZM42.2792 2.46449V7.59558C39.2609 7.20886 36.8745 4.82253 36.4878 1.80423H41.6189C41.9868 1.80423 42.2792 2.09663 42.2792 2.46449ZM2.38111 1.80423H7.51221C7.12549 4.82253 4.73915 7.20886 1.72086 7.59558V2.46449C1.72086 2.09663 2.01326 1.80423 2.38111 1.80423ZM1.72086 23.5925V18.4614C4.73915 18.8482 7.12549 21.2345 7.51221 24.2528H2.38111C2.01326 24.2528 1.72086 23.951 1.72086 23.5925ZM41.6189 24.2528H36.4878C36.8745 21.2345 39.2609 18.8482 42.2792 18.4614V23.5925C42.2792 23.951 41.9868 24.2528 41.6189 24.2528Z" fill="#5A55CA"/>
<path d="M40.1098 28.7803H3.89028C3.41867 28.7803 3.04138 29.1576 3.04138 29.6292C3.04138 30.1008 3.41867 30.4781 3.89028 30.4781H40.1098C40.5814 30.4781 40.9587 30.1008 40.9587 29.6292C40.9587 29.1576 40.5814 28.7803 40.1098 28.7803Z" fill="#5A55CA"/>
<path d="M37.0915 33.3076H6.90859C6.43698 33.3076 6.05969 33.6849 6.05969 34.1565C6.05969 34.6281 6.43698 35.0054 6.90859 35.0054H37.0915C37.5631 35.0054 37.9404 34.6281 37.9404 34.1565C37.9404 33.6849 37.5631 33.3076 37.0915 33.3076Z" fill="#5A55CA"/>
<path d="M22 21.423C26.6312 21.423 30.3946 17.6596 30.3946 13.0284C30.3946 8.39722 26.6312 4.63379 22 4.63379C17.3688 4.63379 13.6053 8.39722 13.6053 13.0284C13.6053 17.6596 17.3688 21.423 22 21.423ZM22 6.33158C25.6879 6.33158 28.6968 9.34044 28.6968 13.0284C28.6968 16.7164 25.6879 19.7253 22 19.7253C18.312 19.7253 15.3031 16.7164 15.3031 13.0284C15.3031 9.34044 18.312 6.33158 22 6.33158Z" fill="#5A55CA"/>
</svg>
