<svg width="46" height="50" viewBox="0 0 46 50" fill="none" xmlns="http://www.w3.org/2000/svg">
<path d="M44.4555 16.3114L25.3789 1.30166C23.9742 0.202832 22.0145 0.202832 20.6098 1.30166L1.54456 16.3114C0.615649 17.0478 0.0718994 18.1466 0.0718994 19.336V45.6739C0.0718994 47.7923 1.8051 49.5255 3.92346 49.5255H13.643C15.7614 49.5255 17.4946 47.7923 17.4946 45.6739V33.87C17.4946 32.8731 18.3102 32.0575 19.3071 32.0575H26.6817C27.6785 32.0575 28.4942 32.8731 28.4942 33.87V45.6739C28.4942 47.7923 30.2274 49.5255 32.3457 49.5255H42.0653C44.1836 49.5255 45.9168 47.7923 45.9168 45.6739V19.336C45.9281 18.1466 45.3957 17.0478 44.4555 16.3114ZM43.8891 45.6739C43.8891 46.6708 43.0735 47.4864 42.0766 47.4864H32.3571C31.3602 47.4864 30.5446 46.6708 30.5446 45.6739V33.87C30.5446 31.7517 28.8114 30.0185 26.693 30.0185H19.3184C17.2 30.0185 15.4668 31.7517 15.4668 33.87V45.6739C15.4668 46.6708 14.6512 47.4864 13.6543 47.4864H3.92346C2.92659 47.4864 2.11096 46.6708 2.11096 45.6739V19.336C2.11096 18.781 2.36018 18.2599 2.80198 17.9087L21.8785 2.89893C22.5356 2.37783 23.4645 2.37783 24.1215 2.89893L43.1981 17.9087C43.6399 18.2599 43.8891 18.7696 43.8891 19.336V45.6739Z" fill="#5A55CA"/>
<path d="M11.5699 17.8633H5.56602C4.68242 17.8633 3.96875 18.577 3.96875 19.4605V23.3234C3.96875 24.207 4.68242 24.9207 5.56602 24.9207H11.5699C12.4535 24.9207 13.1672 24.207 13.1672 23.3234V19.4605C13.1672 18.577 12.4535 17.8633 11.5699 17.8633ZM11.6945 23.3348C11.6945 23.4027 11.6379 23.4594 11.5699 23.4594H5.56602C5.49805 23.4594 5.44141 23.4027 5.44141 23.3348V19.4719C5.44141 19.4039 5.49805 19.3473 5.56602 19.3473H11.5699C11.6379 19.3473 11.6945 19.4039 11.6945 19.4719V23.3348Z" fill="#5A55CA"/>
<path d="M11.5699 28.3645H5.56602C4.68242 28.3645 3.96875 29.0782 3.96875 29.9618V33.836C3.96875 34.7196 4.68242 35.4333 5.56602 35.4333H11.5699C12.4535 35.4333 13.1672 34.7196 13.1672 33.836V29.9731C13.1672 29.0782 12.4535 28.3645 11.5699 28.3645ZM11.6945 33.836C11.6945 33.904 11.6379 33.9606 11.5699 33.9606H5.56602C5.49805 33.9606 5.44141 33.904 5.44141 33.836V29.9731C5.44141 29.9051 5.49805 29.8485 5.56602 29.8485H11.5699C11.6379 29.8485 11.6945 29.9051 11.6945 29.9731V33.836Z" fill="#5A55CA"/>
<path d="M28.834 9.4126H17.166C16.2824 9.4126 15.5687 10.1263 15.5687 11.0099V14.8728C15.5687 15.7563 16.2824 16.47 17.166 16.47H28.834C29.7176 16.47 30.4312 15.7563 30.4312 14.8728V11.0099C30.4312 10.1263 29.7176 9.4126 28.834 9.4126ZM28.9586 14.8728C28.9586 14.9407 28.9019 14.9974 28.834 14.9974H17.166C17.098 14.9974 17.0414 14.9407 17.0414 14.8728V11.0099C17.0414 10.9419 17.098 10.8853 17.166 10.8853H28.834C28.9019 10.8853 28.9586 10.9419 28.9586 11.0099V14.8728Z" fill="#5A55CA"/>
<path d="M28.834 19.9023H17.166C16.2824 19.9023 15.5687 20.616 15.5687 21.4996V25.3625C15.5687 26.2461 16.2824 26.9598 17.166 26.9598H28.834C29.7176 26.9598 30.4312 26.2461 30.4312 25.3625V21.4996C30.4312 20.6273 29.7176 19.9023 28.834 19.9023ZM28.9586 25.3738C28.9586 25.4418 28.9019 25.4984 28.834 25.4984H17.166C17.098 25.4984 17.0414 25.4418 17.0414 25.3738V21.5109C17.0414 21.443 17.098 21.3863 17.166 21.3863H28.834C28.9019 21.3863 28.9586 21.443 28.9586 21.5109V25.3738Z" fill="#5A55CA"/>
<path d="M11.5699 38.8657H5.56602C4.68242 38.8657 3.96875 39.5794 3.96875 40.463V44.3259C3.96875 45.2095 4.68242 45.9231 5.56602 45.9231H11.5699C12.4535 45.9231 13.1672 45.2095 13.1672 44.3259V40.463C13.1672 39.5794 12.4535 38.8657 11.5699 38.8657ZM11.6945 44.3259C11.6945 44.3938 11.6379 44.4505 11.5699 44.4505H5.56602C5.49805 44.4505 5.44141 44.3938 5.44141 44.3259V40.463C5.44141 40.395 5.49805 40.3384 5.56602 40.3384H11.5699C11.6379 40.3384 11.6945 40.395 11.6945 40.463V44.3259Z" fill="#5A55CA"/>
<path d="M40.3774 17.8633H34.3735C33.4899 17.8633 32.7762 18.577 32.7762 19.4605V23.3234C32.7762 24.207 33.4899 24.9207 34.3735 24.9207H40.3774C41.261 24.9207 41.9747 24.207 41.9747 23.3234V19.4605C41.9747 18.577 41.261 17.8633 40.3774 17.8633ZM40.502 23.3348C40.502 23.4027 40.4454 23.4594 40.3774 23.4594H34.3735C34.3055 23.4594 34.2489 23.4027 34.2489 23.3348V19.4719C34.2489 19.4039 34.3055 19.3473 34.3735 19.3473H40.3774C40.4454 19.3473 40.502 19.4039 40.502 19.4719V23.3348Z" fill="#5A55CA"/>
<path d="M40.3774 28.3645H34.3735C33.4899 28.3645 32.7762 29.0782 32.7762 29.9618V33.836C32.7762 34.7196 33.4899 35.4333 34.3735 35.4333H40.3774C41.261 35.4333 41.9747 34.7196 41.9747 33.836V29.9731C41.9747 29.0782 41.261 28.3645 40.3774 28.3645ZM40.502 33.836C40.502 33.904 40.4454 33.9606 40.3774 33.9606H34.3735C34.3055 33.9606 34.2489 33.904 34.2489 33.836V29.9731C34.2489 29.9051 34.3055 29.8485 34.3735 29.8485H40.3774C40.4454 29.8485 40.502 29.9051 40.502 29.9731V33.836Z" fill="#5A55CA"/>
<path d="M40.3774 38.8657H34.3735C33.4899 38.8657 32.7762 39.5794 32.7762 40.463V44.3259C32.7762 45.2095 33.4899 45.9231 34.3735 45.9231H40.3774C41.261 45.9231 41.9747 45.2095 41.9747 44.3259V40.463C41.9747 39.5794 41.261 38.8657 40.3774 38.8657ZM40.502 44.3259C40.502 44.3938 40.4454 44.4505 40.3774 44.4505H34.3735C34.3055 44.4505 34.2489 44.3938 34.2489 44.3259V40.463C34.2489 40.395 34.3055 40.3384 34.3735 40.3384H40.3774C40.4454 40.3384 40.502 40.395 40.502 40.463V44.3259Z" fill="#5A55CA"/>
<path d="M23.6911 38.9223V37.3477C23.6911 36.9738 23.3852 36.668 23.0114 36.668C22.6375 36.668 22.3317 36.9738 22.3317 37.3477V38.9223H20.7571C20.3833 38.9223 20.0774 39.2281 20.0774 39.602C20.0774 39.9758 20.3833 40.2816 20.7571 40.2816H22.3317V41.8562C22.3317 42.2301 22.6375 42.5359 23.0114 42.5359C23.3852 42.5359 23.6911 42.2301 23.6911 41.8562V40.2816H25.2657C25.6395 40.2816 25.9454 39.9758 25.9454 39.602C25.9454 39.2281 25.6395 38.9223 25.2657 38.9223H23.6911Z" fill="#5A55CA"/>
<path d="M23.0113 34.7537C20.3379 34.7537 18.1742 36.9287 18.1742 39.5908C18.1742 42.2529 20.3492 44.4279 23.0113 44.4279C25.6734 44.4279 27.8484 42.2529 27.8484 39.5908C27.8484 36.9287 25.6847 34.7537 23.0113 34.7537ZM23.0113 43.0798C21.0855 43.0798 19.5336 41.5166 19.5336 39.6021C19.5336 37.6876 21.0969 36.1244 23.0113 36.1244C24.9371 36.1244 26.489 37.6876 26.489 39.6021C26.489 41.5166 24.9371 43.0798 23.0113 43.0798Z" fill="#5A55CA"/>
</svg>
