<svg width="60" height="38" viewBox="0 0 60 38" fill="none" xmlns="http://www.w3.org/2000/svg">
<path d="M41.4036 2.88981C39.8323 1.1955 37.6051 0.266357 35.1456 0.266357C32.6724 0.266357 30.4452 1.1955 28.8739 2.87615C27.2889 4.57046 26.5237 6.90697 26.7014 9.46211C26.8653 11.8669 27.8354 14.1215 29.4068 15.8158C31.0055 17.5238 33.0414 18.4802 35.1456 18.4802C37.2498 18.4802 39.2857 17.5374 40.8844 15.8158C41.6769 14.9686 42.3054 13.9848 42.7563 12.9054C43.2209 11.8259 43.4942 10.6645 43.5898 9.46211C43.7675 6.9343 42.9886 4.59779 41.4036 2.88981ZM41.1303 9.28448C40.8571 13.001 38.179 16.0071 35.1456 16.0071C32.1122 16.0071 29.4205 12.9874 29.1608 9.28448C29.0242 7.4262 29.5708 5.74555 30.6775 4.55679C31.7706 3.38171 33.3693 2.72584 35.1456 2.72584C36.9219 2.72584 38.4932 3.38171 39.6 4.57046C40.6111 5.6499 41.1577 7.12559 41.1577 8.73792C41.1577 8.91555 41.144 9.09318 41.1303 9.28448Z" fill="#5A55CA"/>
<path d="M19.6781 5.95061C18.3664 4.54324 16.5218 3.7644 14.4858 3.7644C12.4363 3.7644 10.5917 4.54324 9.29359 5.95061C7.9682 7.37165 7.32601 9.31191 7.47631 11.4161C7.76325 15.5426 10.9196 18.9039 14.4995 18.9039C16.2895 18.9039 17.9701 18.0704 19.2409 16.704C20.5116 15.3513 21.3724 13.4794 21.5227 11.4161C21.6593 9.32558 21.0035 7.38531 19.6781 5.95061ZM19.0496 11.2385C18.8446 14.0533 16.754 16.4444 14.4858 16.4444C12.204 16.4444 10.1134 14.0669 9.92213 11.2385C9.82648 9.81747 10.2364 8.53307 11.0836 7.6176C11.917 6.71579 13.1331 6.22389 14.4858 6.22389C15.8249 6.22389 17.0273 6.72945 17.8745 7.63126C18.7353 8.5604 19.1589 9.8448 19.0496 11.2385Z" fill="#5A55CA"/>
<path d="M15.251 34.2074H2.98094C2.27042 34.2074 1.62822 33.8931 1.19098 33.3466C0.740075 32.7727 0.57611 31.9802 0.753739 31.2423C1.47792 28.3319 3.28154 25.9135 5.94599 24.2601C8.32349 22.7844 11.3569 21.9783 14.4722 21.9783C17.1503 21.9783 19.4322 22.4292 21.4271 23.3447C22.042 23.6316 22.3152 24.3558 22.0283 24.9706C21.7414 25.5855 21.0172 25.8588 20.4023 25.5719C18.7217 24.8067 16.7814 24.4378 14.4585 24.4378C10.0998 24.4378 4.53862 26.3507 3.14491 31.7616H15.2237C15.9069 31.7616 16.4535 32.3081 16.4535 32.9913C16.4535 33.6745 15.9342 34.2074 15.251 34.2074Z" fill="#5A55CA"/>
<path d="M45.407 37.4595H21.2084C20.2793 37.4595 19.4185 37.0495 18.8446 36.3117C18.2434 35.5465 18.0384 34.5081 18.2707 33.5243C19.2272 29.6847 21.591 26.5011 25.1299 24.3149C28.2726 22.3746 32.2625 21.2952 36.3889 21.2952C39.9279 21.2952 42.9339 21.8827 45.571 23.0988C46.3908 23.4677 46.7461 24.4378 46.3635 25.244C45.9946 26.0638 45.0245 26.4191 44.2183 26.0365C42.0048 25.0254 39.4496 24.5335 36.3889 24.5335C30.6365 24.5335 23.299 27.0613 21.4544 34.1938H45.407C46.3089 34.1938 47.033 34.918 47.033 35.8198C47.033 36.7216 46.2952 37.4595 45.407 37.4595Z" fill="#5A55CA"/>
<path d="M54.7257 30.3542C54.5617 30.1629 54.3704 30.0263 54.1382 29.9306C53.9059 29.835 53.6053 29.753 53.2363 29.6574C52.9221 29.5754 52.6761 29.5071 52.4985 29.4524C52.3209 29.3841 52.1706 29.3021 52.0613 29.1791C51.9383 29.0562 51.8836 28.8922 51.8836 28.6872C51.8836 28.5096 51.9383 28.3593 52.0339 28.2227C52.1296 28.086 52.2799 27.9904 52.4575 27.9084C52.6351 27.8401 52.8538 27.7991 53.086 27.7991C53.4003 27.7991 53.6736 27.8811 53.9059 28.0314C54.1382 28.1817 54.3295 28.3866 54.4661 28.6599H54.5344C54.671 28.6599 54.7804 28.5779 54.835 28.455C54.671 28.127 54.4388 27.8674 54.1382 27.6898C53.8376 27.5122 53.496 27.4165 53.1134 27.4165H53.086C52.7718 27.4165 52.4985 27.4712 52.2389 27.5805C51.9793 27.6898 51.788 27.8401 51.6377 28.0314C51.4874 28.2363 51.4191 28.4686 51.4191 28.7419C51.4191 29.0425 51.501 29.2748 51.6513 29.4524C51.8016 29.63 51.9793 29.753 52.1979 29.835C52.4165 29.917 52.7035 29.999 53.0587 30.0809C53.373 30.1493 53.6326 30.2312 53.8239 30.2996C54.0152 30.3679 54.1655 30.4772 54.3021 30.6138C54.4251 30.7505 54.4934 30.9418 54.4934 31.1604C54.4934 31.3653 54.4388 31.543 54.3431 31.7069C54.2475 31.8572 54.0972 31.9802 53.9059 32.0622C53.7146 32.1442 53.4823 32.1852 53.209 32.1852C52.8128 32.1852 52.4712 32.0895 52.1842 31.8846C51.8973 31.6796 51.706 31.4337 51.5967 31.1194L51.5557 31.1057C51.5284 31.1057 51.5147 31.0921 51.4874 31.0921C51.3644 31.0921 51.2551 31.1604 51.2004 31.2834C51.2824 31.543 51.4327 31.7616 51.624 31.9529C51.8153 32.1442 52.0613 32.3081 52.3345 32.4175C52.5668 32.5131 52.8128 32.5678 53.086 32.5814C53.127 32.5814 53.1817 32.5814 53.2363 32.5814C53.5779 32.5814 53.8785 32.5268 54.1382 32.4175C54.3978 32.3081 54.6027 32.1442 54.753 31.9119C54.9033 31.6933 54.9717 31.42 54.9717 31.1194C54.9717 30.8051 54.8897 30.5455 54.7257 30.3542Z" fill="#5A55CA"/>
<path d="M53.0861 27.7444C52.9358 27.7444 52.8129 27.6214 52.8129 27.4711V26.3643C52.8129 26.214 52.9358 26.0911 53.0861 26.0911C53.2364 26.0911 53.3594 26.214 53.3594 26.3643V27.4711C53.3594 27.6214 53.2364 27.7444 53.0861 27.7444Z" fill="#5A55CA"/>
<path d="M53.0861 33.9888C52.9358 33.9888 52.8129 33.8658 52.8129 33.7155V32.6087C52.8129 32.4584 52.9358 32.3354 53.0861 32.3354C53.2364 32.3354 53.3594 32.4584 53.3594 32.6087V33.7155C53.3594 33.8658 53.2364 33.9888 53.0861 33.9888Z" fill="#5A55CA"/>
<path d="M53.0861 36.9538C49.2739 36.9538 46.1722 33.8521 46.1722 30.0399C46.1722 26.2277 49.2739 23.126 53.0861 23.126C56.8983 23.126 60 26.2277 60 30.0399C60 33.8521 56.8983 36.9538 53.0861 36.9538ZM53.0861 24.3557C49.9571 24.3557 47.402 26.9109 47.402 30.0399C47.402 33.1689 49.9571 35.724 53.0861 35.724C56.2151 35.724 58.7703 33.1689 58.7703 30.0399C58.7703 26.8972 56.2151 24.3557 53.0861 24.3557Z" fill="#5A55CA"/>
</svg>
