<svg width="50" height="49" viewBox="0 0 50 49" fill="none" xmlns="http://www.w3.org/2000/svg">
<path d="M46.9188 48.2483H3.08135C1.62119 48.2483 0.439941 47.067 0.439941 45.6069V22.0147C0.439941 20.5545 1.62119 19.3733 3.08135 19.3733H46.9188C48.379 19.3733 49.5603 20.5545 49.5603 22.0147V45.6233C49.5603 47.067 48.379 48.2483 46.9188 48.2483ZM3.08135 21.2764C2.67119 21.2764 2.34307 21.6045 2.34307 22.0147V45.6233C2.34307 46.0334 2.67119 46.3616 3.08135 46.3616H46.9188C47.329 46.3616 47.6571 46.0334 47.6571 45.6233V22.0147C47.6571 21.6045 47.329 21.2764 46.9188 21.2764H3.08135Z" fill="#5A55CA"/>
<path d="M25.0001 43.1953C19.8321 43.1953 15.6157 38.9953 15.6157 33.8109C15.6157 28.6265 19.8157 24.4265 25.0001 24.4265C30.1845 24.4265 34.3845 28.6265 34.3845 33.8109C34.3845 38.9953 30.1681 43.1953 25.0001 43.1953ZM25.0001 26.3296C20.8821 26.3296 17.5188 29.6929 17.5188 33.8109C17.5188 37.9289 20.8821 41.2921 25.0001 41.2921C29.1181 41.2921 32.4813 37.9289 32.4813 33.8109C32.4813 29.6929 29.1181 26.3296 25.0001 26.3296Z" fill="#5A55CA"/>
<path d="M48.6087 29.7092C43.4408 29.7092 39.2244 25.5092 39.2244 20.3249C39.2244 19.7999 39.6509 19.3733 40.1759 19.3733C40.7009 19.3733 41.1275 19.7999 41.1275 20.3249C41.1275 24.4428 44.4908 27.8061 48.6087 27.8061C49.1337 27.8061 49.5603 28.2327 49.5603 28.7577C49.5603 29.2827 49.1337 29.7092 48.6087 29.7092Z" fill="#5A55CA"/>
<path d="M1.3915 29.7092C0.866503 29.7092 0.439941 29.2827 0.439941 28.7577C0.439941 28.2327 0.866503 27.8061 1.3915 27.8061C5.50947 27.8061 8.87275 24.4428 8.87275 20.3249C8.87275 19.7999 9.29932 19.3733 9.82432 19.3733C10.3493 19.3733 10.7759 19.7999 10.7759 20.3249C10.7759 25.4928 6.55947 29.7092 1.3915 29.7092Z" fill="#5A55CA"/>
<path d="M40.1759 48.2483C39.6509 48.2483 39.2244 47.8217 39.2244 47.2967C39.2244 42.1288 43.4244 37.9124 48.6087 37.9124C49.1337 37.9124 49.5603 38.3389 49.5603 38.8639C49.5603 39.3889 49.1337 39.8155 48.6087 39.8155C44.4908 39.8155 41.1275 43.1788 41.1275 47.2967C41.1275 47.8217 40.7009 48.2483 40.1759 48.2483Z" fill="#5A55CA"/>
<path d="M9.82432 48.2483C9.29932 48.2483 8.87275 47.8217 8.87275 47.2967C8.87275 43.1788 5.50947 39.8155 1.3915 39.8155C0.866503 39.8155 0.439941 39.3889 0.439941 38.8639C0.439941 38.3389 0.866503 37.9124 1.3915 37.9124C6.55947 37.9124 10.7759 42.1124 10.7759 47.2967C10.7759 47.8217 10.3493 48.2483 9.82432 48.2483Z" fill="#5A55CA"/>
<path d="M15.4844 17.5687C10.9071 17.5687 7.18286 13.8445 7.18286 9.26714C7.18286 4.68979 10.9071 0.965576 15.4844 0.965576C20.0618 0.965576 23.786 4.68979 23.786 9.26714C23.786 13.8445 20.0618 17.5687 15.4844 17.5687ZM15.4844 2.19604C11.5961 2.19604 8.42974 5.36245 8.42974 9.25073C8.42974 13.139 11.5961 16.3054 15.4844 16.3054C19.3727 16.3054 22.5391 13.139 22.5391 9.25073C22.5391 5.36245 19.3727 2.19604 15.4844 2.19604Z" fill="#5A55CA"/>
<path d="M34.5157 17.5687C29.9383 17.5687 26.2141 13.8445 26.2141 9.26714C26.2141 4.68979 29.9383 0.965576 34.5157 0.965576C39.093 0.965576 42.8172 4.68979 42.8172 9.26714C42.8172 13.8445 39.093 17.5687 34.5157 17.5687ZM34.5157 2.19604C30.6274 2.19604 27.461 5.36245 27.461 9.25073C27.461 13.139 30.6274 16.3054 34.5157 16.3054C38.404 16.3054 41.5704 13.139 41.5704 9.25073C41.5704 5.36245 38.404 2.19604 34.5157 2.19604Z" fill="#5A55CA"/>
<path d="M18.897 9.74307H12.072C11.8095 9.74307 11.5962 9.52978 11.5962 9.26728C11.5962 9.00478 11.8095 8.7915 12.072 8.7915H18.897C19.1595 8.7915 19.3728 9.00478 19.3728 9.26728C19.3728 9.52978 19.1595 9.74307 18.897 9.74307Z" fill="#5A55CA"/>
<path d="M15.4846 13.1555C15.2221 13.1555 15.0088 12.9422 15.0088 12.6797V5.85469C15.0088 5.59219 15.2221 5.37891 15.4846 5.37891C15.7471 5.37891 15.9603 5.59219 15.9603 5.85469V12.6797C15.9603 12.9422 15.7471 13.1555 15.4846 13.1555Z" fill="#5A55CA"/>
<path d="M37.9282 9.74282H31.1032C30.8407 9.74282 30.6274 9.52954 30.6274 9.26704C30.6274 9.00454 30.8407 8.79126 31.1032 8.79126H37.9282C38.1907 8.79126 38.404 9.00454 38.404 9.26704C38.4204 9.52954 38.1907 9.74282 37.9282 9.74282Z" fill="#5A55CA"/>
</svg>
