<svg width="36" height="39" viewBox="0 0 36 39" fill="none" xmlns="http://www.w3.org/2000/svg">
<path d="M17.6351 38.1602H3.83579C2.03425 38.1602 0.572266 36.6982 0.572266 34.8966V8.37339C0.572266 6.57185 2.03425 5.10986 3.83579 5.10986H30.3496C32.1512 5.10986 33.6131 6.57185 33.6131 8.37339V19.0129C33.6131 19.4845 33.2359 19.8618 32.7642 19.8618C32.2926 19.8618 31.9153 19.4845 31.9153 19.0129V8.37339C31.9153 7.50563 31.2079 6.80765 30.3496 6.80765H3.83579C2.96804 6.80765 2.27006 7.51506 2.27006 8.37339V34.8872C2.27006 35.755 2.97747 36.4529 3.83579 36.4529H17.6351C18.1067 36.4529 18.4839 36.8302 18.4839 37.3018C18.4839 37.7734 18.1067 38.1602 17.6351 38.1602Z" fill="#5A55CA"/>
<path d="M24.3035 6.80765C23.8319 6.80765 23.4546 6.43037 23.4546 5.95876V1.70485C23.4546 1.23324 23.8319 0.855957 24.3035 0.855957C24.7751 0.855957 25.1524 1.23324 25.1524 1.70485V5.95876C25.1524 6.43037 24.7751 6.80765 24.3035 6.80765Z" fill="#5A55CA"/>
<path d="M9.57985 6.80765C9.10824 6.80765 8.73096 6.43037 8.73096 5.95876V1.70485C8.73096 1.23324 9.10824 0.855957 9.57985 0.855957C10.0515 0.855957 10.4287 1.23324 10.4287 1.70485V5.95876C10.4287 6.43037 10.0515 6.80765 9.57985 6.80765Z" fill="#5A55CA"/>
<path d="M32.7642 12.7876H1.41164C0.940031 12.7876 0.562744 12.4103 0.562744 11.9387C0.562744 11.4671 0.940031 11.0898 1.41164 11.0898H32.7547C33.2263 11.0898 33.6036 11.4671 33.6036 11.9387C33.6036 12.4103 33.2263 12.7876 32.7642 12.7876Z" fill="#5A55CA"/>
<path d="M29.3687 32.0008C29.1518 32.0008 28.9348 31.916 28.765 31.7556L26.3315 29.3221V25.9265C26.3315 25.4549 26.7088 25.0776 27.1804 25.0776C27.652 25.0776 28.0293 25.4549 28.0293 25.9265V28.6241L29.9629 30.5577C30.2931 30.8879 30.2931 31.4255 29.9629 31.7556C29.8026 31.916 29.5856 32.0008 29.3687 32.0008Z" fill="#5A55CA"/>
<path d="M27.1802 37.066C22.7188 37.066 19.0874 33.4346 19.0874 28.9732C19.0874 24.5118 22.7188 20.8804 27.1802 20.8804C31.6416 20.8804 35.273 24.5118 35.273 28.9732C35.273 33.4346 31.6416 37.066 27.1802 37.066ZM27.1802 22.5687C23.6526 22.5687 20.7852 25.4361 20.7852 28.9637C20.7852 32.4914 23.6526 35.3587 27.1802 35.3587C30.7078 35.3587 33.5752 32.4914 33.5752 28.9637C33.5752 25.4361 30.7078 22.5687 27.1802 22.5687Z" fill="#5A55CA"/>
</svg>
