<svg width="52" height="44" viewBox="0 0 52 44" fill="none" xmlns="http://www.w3.org/2000/svg">
<path d="M23.8989 43.7207C23.5509 43.7207 23.2286 43.5918 22.9837 43.3598C18.6524 39.2734 11.1243 38.7191 4.34385 38.7191C1.9333 38.7191 0.115723 36.8113 0.115723 34.2848V4.50742C0.115723 3.10234 0.811816 1.7875 1.98486 0.988277C2.69385 0.511324 3.51885 0.266402 4.36963 0.279292C11.5497 0.305074 16.9251 1.22031 20.8052 3.07656C22.0942 3.68242 23.2931 4.45585 24.363 5.37109C24.9302 5.86093 25.2524 6.56992 25.2524 7.30468V42.393C25.2524 42.7281 25.1235 43.0633 24.8915 43.3082C24.6466 43.566 24.3114 43.7078 23.9634 43.7207C23.9247 43.7207 23.9118 43.7207 23.8989 43.7207ZM4.30518 2.08398C3.82822 2.08398 3.37705 2.22578 2.97744 2.48359C2.30713 2.93476 1.90752 3.69531 1.90752 4.49453V34.2848C1.90752 35.8059 2.92588 36.9145 4.33096 36.9145C11.0856 36.9145 18.5751 37.4559 23.422 41.3617V7.30468C23.422 7.08554 23.3317 6.87929 23.1642 6.7375C22.2103 5.92539 21.1532 5.24218 20.006 4.70078C16.3837 2.97343 11.2532 2.10976 4.33096 2.08398C4.33096 2.08398 4.31807 2.08398 4.30518 2.08398Z" fill="#5A55CA"/>
<path d="M28.0756 43.7077C27.3537 43.7077 26.7607 43.1147 26.7607 42.3929V7.29169C26.7607 6.55693 27.083 5.84795 27.6373 5.3581C28.7201 4.42998 29.9318 3.65654 31.208 3.05068C35.0623 1.20732 40.4377 0.292085 47.6436 0.253413C48.4814 0.240523 49.3064 0.485445 50.0154 0.962398C51.1885 1.74873 51.8846 3.06357 51.8846 4.48154V34.4651C51.8846 36.7983 49.9896 38.6933 47.6564 38.6933C47.6564 38.6933 47.6564 38.6933 47.6436 38.6933C35.2299 38.6933 31.1564 41.1554 28.9908 43.3081C28.7459 43.5659 28.4236 43.7077 28.0756 43.7077ZM47.6951 2.08388C47.6822 2.08388 47.6693 2.08388 47.6564 2.08388C40.7213 2.10966 35.5908 2.97334 31.9814 4.70068C30.8342 5.24209 29.7771 5.92529 28.8104 6.7374C28.6557 6.8792 28.5654 7.08545 28.5654 7.30459V41.2843C31.1693 39.1187 35.9518 36.9144 47.6436 36.9144C47.6436 36.9144 47.6436 36.9144 47.6564 36.9144C48.9971 36.9144 50.0799 35.8186 50.0799 34.4909V4.49443C50.0799 3.68232 49.6803 2.92177 49.01 2.4706C48.6232 2.21279 48.1721 2.08388 47.6951 2.08388Z" fill="#5A55CA"/>
<path d="M19.6449 16.2379C19.5418 16.2379 19.4258 16.2121 19.3227 16.1477C18.6266 15.6965 17.8531 15.3098 17.0281 15.0133C14.3984 14.0465 10.6859 13.5695 5.69727 13.5566C5.375 13.5566 5.11719 13.2988 5.11719 12.9766C5.11719 12.6543 5.375 12.3965 5.69727 12.3965C10.8277 12.4094 14.6691 12.9121 17.4277 13.9305C18.343 14.2527 19.1937 14.6781 19.9672 15.1809C20.2379 15.3613 20.3152 15.7223 20.1348 15.9801C20.0188 16.1477 19.8383 16.2379 19.6449 16.2379Z" fill="#5A55CA"/>
<path d="M19.6449 20.1952C19.5418 20.1952 19.4258 20.1694 19.3227 20.1049C18.6266 19.6538 17.8531 19.267 17.0281 18.9706C14.3984 18.0038 10.6859 17.5268 5.69727 17.5139C5.375 17.5139 5.11719 17.2561 5.11719 16.9338C5.11719 16.6116 5.375 16.3538 5.69727 16.3538C10.8277 16.3667 14.6691 16.8694 17.4277 17.8877C18.343 18.21 19.1937 18.6354 19.9672 19.1381C20.2379 19.3186 20.3152 19.6795 20.1348 19.9374C20.0188 20.1049 19.8383 20.1952 19.6449 20.1952Z" fill="#5A55CA"/>
<path d="M19.6449 24.1527C19.5418 24.1527 19.4258 24.1269 19.3227 24.0625C18.6266 23.6113 17.8531 23.2246 17.0281 22.9281C14.3984 21.9613 10.6859 21.4843 5.69727 21.4714C5.375 21.4714 5.11719 21.2136 5.11719 20.8914C5.11719 20.5691 5.375 20.3113 5.69727 20.3113C10.8277 20.3242 14.6691 20.8269 17.4277 21.8453C18.343 22.1675 19.1937 22.5929 19.9672 23.0957C20.2379 23.2761 20.3152 23.6371 20.1348 23.8949C20.0188 24.0496 19.8383 24.1527 19.6449 24.1527Z" fill="#5A55CA"/>
<path d="M19.6449 28.0973C19.5418 28.0973 19.4258 28.0715 19.3227 28.007C18.6266 27.5559 17.8531 27.1691 17.0281 26.8727C14.3984 25.9059 10.6859 25.4289 5.69727 25.416C5.375 25.416 5.11719 25.1582 5.11719 24.8359C5.11719 24.5137 5.375 24.2559 5.69727 24.2559C10.8277 24.2687 14.6691 24.7715 17.4277 25.7898C18.343 26.1121 19.1937 26.5375 19.9672 27.0402C20.2379 27.2207 20.3152 27.5816 20.1348 27.8395C20.0188 28.007 19.8383 28.0973 19.6449 28.0973Z" fill="#5A55CA"/>
<path d="M32.3294 27.0401C32.2649 27.0401 32.2004 27.0272 32.1489 27.0014C31.9555 26.8983 31.8911 26.6663 31.9813 26.4729L34.7399 21.2393C34.7915 21.1362 34.8946 21.0589 35.0106 21.046C35.1266 21.0202 35.2426 21.0589 35.3329 21.1362L37.4469 22.9796L40.27 18.094C40.3344 17.9909 40.4376 17.9135 40.5665 17.9007C40.6825 17.8878 40.8114 17.9393 40.8887 18.0296L42.0876 19.3702L45.2844 12.8217C45.3747 12.6284 45.6067 12.551 45.8001 12.6413C45.9934 12.7315 46.0708 12.9635 45.9805 13.1569L42.5258 20.221C42.4743 20.337 42.3583 20.4143 42.2294 20.4401C42.1004 20.453 41.9715 20.4143 41.8942 20.3112L40.6696 18.9448L37.8723 23.7788C37.8208 23.8819 37.7176 23.9464 37.6016 23.9721C37.4856 23.985 37.3696 23.9592 37.2794 23.8819L35.1782 22.0514L32.6387 26.8467C32.6129 26.9628 32.4711 27.0401 32.3294 27.0401Z" fill="#5A55CA"/>
<path d="M35.8872 14.1753C35.8099 14.1753 35.7583 14.1237 35.7583 14.0464V13.7241C35.7583 13.6468 35.8099 13.5952 35.8872 13.5952C35.9646 13.5952 36.0161 13.6468 36.0161 13.7241V14.0464C36.0161 14.1237 35.9646 14.1753 35.8872 14.1753Z" fill="#5A55CA"/>
<path d="M35.8872 25.3643C35.8099 25.3643 35.7583 25.3127 35.7583 25.2354V24.6166C35.7583 24.5393 35.8099 24.4877 35.8872 24.4877C35.9646 24.4877 36.0161 24.5393 36.0161 24.6166V25.2354C36.0161 25.2999 35.9646 25.3643 35.8872 25.3643ZM35.8872 24.1139C35.8099 24.1139 35.7583 24.0624 35.7583 23.985V23.3663C35.7583 23.2889 35.8099 23.2374 35.8872 23.2374C35.9646 23.2374 36.0161 23.2889 36.0161 23.3663V23.985C36.0161 24.0624 35.9646 24.1139 35.8872 24.1139ZM35.8872 22.8764C35.8099 22.8764 35.7583 22.8249 35.7583 22.7475V22.1288C35.7583 22.0514 35.8099 21.9999 35.8872 21.9999C35.9646 21.9999 36.0161 22.0514 36.0161 22.1288V22.7475C36.0161 22.8249 35.9646 22.8764 35.8872 22.8764ZM35.8872 21.6389C35.8099 21.6389 35.7583 21.5874 35.7583 21.51V20.8913C35.7583 20.8139 35.8099 20.7624 35.8872 20.7624C35.9646 20.7624 36.0161 20.8139 36.0161 20.8913V21.51C36.0161 21.5745 35.9646 21.6389 35.8872 21.6389ZM35.8872 20.3885C35.8099 20.3885 35.7583 20.337 35.7583 20.2596V19.6409C35.7583 19.5635 35.8099 19.512 35.8872 19.512C35.9646 19.512 36.0161 19.5635 36.0161 19.6409V20.2596C36.0161 20.337 35.9646 20.3885 35.8872 20.3885ZM35.8872 19.151C35.8099 19.151 35.7583 19.0995 35.7583 19.0221V18.4034C35.7583 18.326 35.8099 18.2745 35.8872 18.2745C35.9646 18.2745 36.0161 18.326 36.0161 18.4034V19.0221C36.0161 19.0866 35.9646 19.151 35.8872 19.151ZM35.8872 17.9006C35.8099 17.9006 35.7583 17.8491 35.7583 17.7717V17.153C35.7583 17.0756 35.8099 17.0241 35.8872 17.0241C35.9646 17.0241 36.0161 17.0756 36.0161 17.153V17.7717C36.0161 17.8491 35.9646 17.9006 35.8872 17.9006ZM35.8872 16.6631C35.8099 16.6631 35.7583 16.6116 35.7583 16.5342V15.9155C35.7583 15.8381 35.8099 15.7866 35.8872 15.7866C35.9646 15.7866 36.0161 15.8381 36.0161 15.9155V16.5342C36.0161 16.5987 35.9646 16.6631 35.8872 16.6631ZM35.8872 15.4256C35.8099 15.4256 35.7583 15.3741 35.7583 15.2967V14.678C35.7583 14.6006 35.8099 14.5491 35.8872 14.5491C35.9646 14.5491 36.0161 14.6006 36.0161 14.678V15.2967C36.0161 15.3612 35.9646 15.4256 35.8872 15.4256Z" fill="#5A55CA"/>
<path d="M35.8872 26.3054C35.8099 26.3054 35.7583 26.2539 35.7583 26.1765V25.8542C35.7583 25.7769 35.8099 25.7253 35.8872 25.7253C35.9646 25.7253 36.0161 25.7769 36.0161 25.8542V26.1765C36.0161 26.2539 35.9646 26.3054 35.8872 26.3054Z" fill="#5A55CA"/>
<path d="M41.4817 13.4277C41.4043 13.4277 41.3528 13.3762 41.3528 13.2988V12.9766C41.3528 12.8992 41.4043 12.8477 41.4817 12.8477C41.559 12.8477 41.6106 12.8992 41.6106 12.9766V13.2988C41.6106 13.3633 41.559 13.4277 41.4817 13.4277Z" fill="#5A55CA"/>
<path d="M41.4817 24.6038C41.4043 24.6038 41.3528 24.5522 41.3528 24.4749V23.8562C41.3528 23.7788 41.4043 23.7272 41.4817 23.7272C41.559 23.7272 41.6106 23.7788 41.6106 23.8562V24.4749C41.6106 24.5522 41.559 24.6038 41.4817 24.6038ZM41.4817 23.3663C41.4043 23.3663 41.3528 23.3147 41.3528 23.2374V22.6187C41.3528 22.5413 41.4043 22.4897 41.4817 22.4897C41.559 22.4897 41.6106 22.5413 41.6106 22.6187V23.2374C41.6106 23.3019 41.559 23.3663 41.4817 23.3663ZM41.4817 22.1288C41.4043 22.1288 41.3528 22.0772 41.3528 21.9999V21.3812C41.3528 21.3038 41.4043 21.2522 41.4817 21.2522C41.559 21.2522 41.6106 21.3038 41.6106 21.3812V21.9999C41.6106 22.0644 41.559 22.1288 41.4817 22.1288ZM41.4817 20.8784C41.4043 20.8784 41.3528 20.8269 41.3528 20.7495V20.1308C41.3528 20.0534 41.4043 20.0019 41.4817 20.0019C41.559 20.0019 41.6106 20.0534 41.6106 20.1308V20.7495C41.6106 20.8269 41.559 20.8784 41.4817 20.8784ZM41.4817 19.6409C41.4043 19.6409 41.3528 19.5894 41.3528 19.512V18.8933C41.3528 18.8159 41.4043 18.7644 41.4817 18.7644C41.559 18.7644 41.6106 18.8159 41.6106 18.8933V19.512C41.6106 19.5765 41.559 19.6409 41.4817 19.6409ZM41.4817 18.3905C41.4043 18.3905 41.3528 18.339 41.3528 18.2616V17.6429C41.3528 17.5655 41.4043 17.514 41.4817 17.514C41.559 17.514 41.6106 17.5655 41.6106 17.6429V18.2616C41.6106 18.339 41.559 18.3905 41.4817 18.3905ZM41.4817 17.153C41.4043 17.153 41.3528 17.1015 41.3528 17.0241V16.4054C41.3528 16.328 41.4043 16.2765 41.4817 16.2765C41.559 16.2765 41.6106 16.328 41.6106 16.4054V17.0241C41.6106 17.0886 41.559 17.153 41.4817 17.153ZM41.4817 15.9026C41.4043 15.9026 41.3528 15.8511 41.3528 15.7737V15.155C41.3528 15.0776 41.4043 15.0261 41.4817 15.0261C41.559 15.0261 41.6106 15.0776 41.6106 15.155V15.7737C41.6106 15.8511 41.559 15.9026 41.4817 15.9026ZM41.4817 14.6651C41.4043 14.6651 41.3528 14.6136 41.3528 14.5362V13.9175C41.3528 13.8401 41.4043 13.7886 41.4817 13.7886C41.559 13.7886 41.6106 13.8401 41.6106 13.9175V14.5362C41.6106 14.6136 41.559 14.6651 41.4817 14.6651Z" fill="#5A55CA"/>
<path d="M41.4817 25.5579C41.4043 25.5579 41.3528 25.5063 41.3528 25.429V25.1067C41.3528 25.0293 41.4043 24.9778 41.4817 24.9778C41.559 24.9778 41.6106 25.0293 41.6106 25.1067V25.429C41.6106 25.4934 41.559 25.5579 41.4817 25.5579Z" fill="#5A55CA"/>
</svg>
