<svg width="58" height="45" viewBox="0 0 58 45" fill="none" xmlns="http://www.w3.org/2000/svg">
<path d="M19.5413 20.8363C14.6406 20.8363 10.3324 16.1918 9.93197 10.4902C9.72377 7.59141 10.6046 4.93281 12.4144 2.9789C14.2081 1.05703 16.7226 0 19.5253 0C22.312 0 24.8265 1.05703 26.6203 2.99492C28.446 4.94883 29.3269 7.60742 29.1187 10.4742C28.7343 16.2078 24.4261 20.8363 19.5413 20.8363ZM19.5413 2.2582C17.3632 2.2582 15.4253 3.05898 14.064 4.51641C12.6867 6.00586 12.014 8.07187 12.1742 10.3301C12.4945 14.7984 15.8738 18.5941 19.5413 18.5941C23.2089 18.5941 26.5882 14.8145 26.9085 10.3301C27.0687 8.08789 26.396 6.03789 25.0027 4.53242C23.6253 3.075 21.6874 2.2582 19.5413 2.2582Z" fill="#5A55CA"/>
<path d="M28.5261 43.2584H2.67689C1.8601 43.2584 1.09135 42.89 0.594861 42.2494C0.0663458 41.5607 -0.125841 40.6318 0.0823619 39.751C1.10736 35.667 3.62181 32.2717 7.38549 29.9494C10.7648 27.8514 15.073 26.6982 19.5253 26.6982C23.3531 26.6982 26.6042 27.3389 29.439 28.6361C29.9996 28.8924 30.2558 29.565 29.9835 30.1256C29.7273 30.6861 29.0546 30.9424 28.4941 30.6701C25.9476 29.501 23.0167 28.9404 19.5093 28.9404C12.8468 28.9404 4.3265 31.9193 2.22845 40.2955C2.18041 40.5197 2.21244 40.7279 2.32455 40.8721C2.40463 40.9682 2.50072 41.0162 2.64486 41.0162H28.4941C29.1187 41.0162 29.6152 41.5127 29.6152 42.1373C29.6152 42.7619 29.1347 43.2584 28.5261 43.2584Z" fill="#5A55CA"/>
<path d="M53.4625 44.0908H36.3898C35.4449 44.0908 34.6761 43.3221 34.6761 42.3771V25.3045C34.6761 24.3596 35.4449 23.5908 36.3898 23.5908H53.4625C54.4074 23.5908 55.1761 24.3596 55.1761 25.3045V42.3771C55.1761 43.3221 54.4074 44.0908 53.4625 44.0908ZM36.3898 24.8721C36.1496 24.8721 35.9574 25.0643 35.9574 25.3045V42.3771C35.9574 42.6174 36.1496 42.8096 36.3898 42.8096H53.4625C53.7027 42.8096 53.8949 42.6174 53.8949 42.3771V25.3045C53.8949 25.0643 53.7027 24.8721 53.4625 24.8721H36.3898Z" fill="#5A55CA"/>
<path d="M56.0089 24.8724H33.8433C32.8984 24.8724 32.1296 24.1036 32.1296 23.1587V22.7103C32.1296 21.7653 32.8984 20.9966 33.8433 20.9966H56.0089C56.9539 20.9966 57.7226 21.7653 57.7226 22.7103V23.1587C57.7226 24.1036 56.9539 24.8724 56.0089 24.8724ZM33.8433 22.2778C33.6031 22.2778 33.4109 22.47 33.4109 22.7103V23.1587C33.4109 23.3989 33.6031 23.5911 33.8433 23.5911H56.0089C56.2492 23.5911 56.4414 23.3989 56.4414 23.1587V22.7103C56.4414 22.47 56.2492 22.2778 56.0089 22.2778H33.8433Z" fill="#5A55CA"/>
<path d="M49.2664 31.0705H40.6019C39.673 31.0705 38.9363 30.3178 38.9363 29.4049C38.9363 28.492 39.673 27.7393 40.6019 27.7393H49.2664C50.1953 27.7393 50.932 28.492 50.932 29.4049C50.932 30.3178 50.1792 31.0705 49.2664 31.0705ZM40.6019 28.3799C40.0414 28.3799 39.5769 28.8443 39.5769 29.4049C39.5769 29.9654 40.0414 30.4299 40.6019 30.4299H49.2664C49.8269 30.4299 50.2914 29.9654 50.2914 29.4049C50.2914 28.8443 49.8269 28.3799 49.2664 28.3799H40.6019Z" fill="#5A55CA"/>
<path d="M52.2453 16.7686H34.5801C34.2277 16.7686 33.9395 16.4803 33.9395 16.1279C33.9395 15.7756 34.2277 15.4873 34.5801 15.4873H52.2453C52.5977 15.4873 52.8859 15.7756 52.8859 16.1279C52.8859 16.4803 52.5977 16.7686 52.2453 16.7686Z" fill="#5A55CA"/>
<path d="M51.6207 18.2419L55.2723 16.1278L51.6207 14.0298V18.2419Z" fill="#5A55CA"/>
</svg>
