<svg width="201" height="260" viewBox="0 0 201 260" fill="none" xmlns="http://www.w3.org/2000/svg">
<path d="M200.825 207.245C200.726 171.814 200.899 136.389 200.65 100.958C200.519 82.2703 200.856 63.5624 200.825 44.8658C200.825 39.4151 200.763 33.9644 200.794 28.5166C200.808 26.6563 200.069 25.4019 198.39 24.6091C197.258 24.0739 196.125 23.4765 195.021 22.8734C185.11 17.4935 174.393 13.3254 163.667 9.88798C158.072 8.09845 152.395 6.62322 146.661 5.33205C140.132 3.86259 133.529 2.74535 126.88 1.98518C121.163 1.33676 115.426 0.832754 109.661 0.725156C104.021 0.614727 98.3721 0.538276 92.7459 0.846912C87.3858 1.13006 82.0201 1.56612 76.6996 2.35612C73.0186 2.9026 69.3207 3.41227 65.6793 4.16263C60.4863 5.22728 55.3159 6.41086 50.2135 7.88042C45.4197 9.26504 40.6628 10.7742 35.9851 12.5156C28.9997 15.115 22.1842 18.1249 15.4509 21.3302C11.7397 23.0914 8.04075 24.88 4.35411 26.6959C1.98978 27.8568 0.673123 29.6775 0.843014 32.4383C0.990254 35.0291 1.08652 37.6313 1.10068 40.2278C1.21677 67.4104 0.789215 94.5931 1.2366 121.776C1.47161 136.163 0.871328 150.547 1.05821 164.934C1.34136 186.737 0.823194 208.539 0.896814 230.342C0.896814 232.825 1.77741 235.722 4.07378 236.665C6.69578 237.755 9.26964 239.395 11.8407 240.612C21.836 245.338 33.6434 247.988 44.2843 251.157C60.907 256.074 78.1179 258.723 95.45 259.031C98.7459 259.079 102.039 259.096 105.332 259.031C107.529 258.992 108.433 258.032 108.475 255.86C108.515 254.087 108.475 252.312 108.475 250.537C108.297 235.643 108.305 220.746 108.399 205.855C108.438 199.541 111.27 194.724 116.774 191.519C120.662 189.254 124.949 188.668 129.324 188.297C132.973 187.985 136.623 187.702 140.248 187.065C145.106 186.238 149.873 184.939 154.479 183.186C165.694 178.837 175.299 172.112 183.437 163.263C184.518 162.085 185.453 160.732 186.914 159.65C187.22 160.466 187.123 161.154 187.129 161.819C187.163 181.783 187.196 201.748 187.228 221.714C187.228 221.969 187.211 222.221 187.228 222.473C187.302 223.634 186.631 224.376 185.767 224.965C185.284 225.262 184.774 225.513 184.244 225.715C176.627 229.113 169.078 232.641 161.291 235.64C153.856 238.471 146.2 240.686 138.401 242.263C133.769 243.217 129.111 244.095 124.405 244.65C123.905 244.714 123.413 244.834 122.938 245.007C121.523 245.499 121.31 245.819 121.302 247.354C121.302 249.701 121.302 252.046 121.302 254.393C121.302 257.998 121.302 258.032 124.909 257.508C129.842 256.769 134.777 256.05 139.659 255.027C148.253 253.254 156.724 250.925 165.018 248.056C176.469 244.034 187.53 238.977 198.065 232.95C199.953 231.877 200.831 230.353 200.817 228.159C200.783 221.188 200.842 214.214 200.825 207.245ZM92.2758 246.159C85.517 245.822 78.7836 245.225 72.0899 244.217C59.9055 242.387 47.9473 239.28 36.4127 234.949C30.4438 232.706 24.6845 229.954 18.8572 227.397C16.9799 226.571 16.3768 225.271 16.3768 223.391C16.3768 218.133 16.3286 212.872 16.2862 207.613C16.1644 193.549 16.3683 179.482 16.0681 165.424C16.0701 164.161 16.1781 162.9 16.3909 161.655C18.5735 164.353 20.9387 166.898 23.4697 169.272C28.7364 174.182 34.6826 178.095 41.096 181.314C46.5737 184.064 52.3868 186.086 58.3881 187.331C63.1523 188.351 68.0169 188.826 72.8884 188.747C75.7369 188.688 78.5713 188.914 81.3292 189.772C88.1248 191.898 92.576 196.31 94.3882 203.253C94.8837 205.153 94.8837 207.152 94.8837 209.092C94.98 220.559 95.0224 232.027 95.0762 243.492C95.0932 245.78 94.5439 246.278 92.2758 246.159ZM187.342 116.713C186.883 125.069 185.671 133.303 182.406 141.109C178.174 151.239 171.393 159.19 162.064 164.962C154.136 169.889 145.443 172.825 136.315 174.609C133.56 175.15 130.793 175.252 128.015 175.343C118.272 175.657 109.922 179.103 103.18 186.238C102.917 186.521 102.656 186.788 102.384 187.059C101.558 187.875 101.535 187.878 100.685 186.963C98.0352 184.217 95.1385 181.804 91.7265 180.046C87.7624 177.996 83.5717 176.688 79.0894 176.365C73.7973 175.994 68.4825 175.937 63.2329 174.986C53.8718 173.287 45.2952 169.821 37.7491 163.943C29.7189 157.694 23.5207 149.975 19.4971 140.617C17.9163 136.953 16.9308 133.061 16.5778 129.087C16.1361 124.163 15.9747 119.23 15.9804 114.292L15.5188 79.7332C15.5188 69.6587 15.5188 59.5832 15.5188 49.5067C15.5188 46.0267 15.5585 42.5355 15.4509 39.0527C15.4027 37.3991 15.9549 36.3599 17.4329 35.5416C26.6127 30.3995 36.1635 26.1579 46.2607 23.1339C52.8553 21.1518 59.5491 19.6228 66.2598 18.1136C73.7719 16.416 81.3842 15.1969 89.0507 14.4637C97.0589 13.7144 105.11 13.5251 113.144 13.8974C118.966 14.156 124.752 14.6997 130.501 15.5284C138.932 16.7634 147.267 18.5847 155.444 20.9791C165.845 23.9975 175.831 28.0862 185.603 32.6988C186.795 33.2651 187.073 33.9418 187.073 35.165C187.073 49.3595 187.056 63.5567 187.16 77.7512C187.223 85.8578 187.577 93.9645 187.54 102.077C187.509 106.961 187.613 111.848 187.342 116.713Z" fill="url(#paint0_linear_1_5)"/>
<path d="M102.832 34.8931C113.122 35.0205 122.434 38.3362 130.833 44.356C136.516 48.4306 141.205 53.4169 144.537 59.601C147.145 64.3865 148.797 69.6335 149.402 75.0498C149.665 77.4424 150.614 79.181 152.771 80.3617C157.511 82.928 161.788 86.269 165.426 90.2466C169.101 94.2741 171.927 99.0004 173.736 104.144C175.82 110.068 176.702 116.348 176.33 122.617C175.975 129.797 173.648 136.741 169.605 142.686C164.975 149.542 159.128 155.145 151.837 159.152C147.721 161.372 143.31 162.993 138.736 163.965C134.299 164.996 129.752 165.472 125.198 165.381C119.963 165.24 114.928 164.113 110.038 162.334C107.787 161.519 105.601 160.508 103.438 159.477C102.847 159.175 102.191 159.02 101.528 159.024C100.864 159.028 100.211 159.193 99.6237 159.503C96.7921 160.868 93.9408 162.218 90.9309 163.232C85.5298 165.04 79.8723 165.963 74.1768 165.967C66.6236 166.058 59.155 164.371 52.374 161.043C40.1107 155.001 31.9134 145.498 27.9662 132.34C26.5693 127.802 25.9939 123.05 26.2673 118.31C26.6269 112.517 28.2296 107.012 30.7723 101.791C35.0592 92.9875 41.6567 86.3476 50.0097 81.4037C51.4424 80.5543 52.2239 79.4811 52.4816 77.8417C53.4783 71.5132 55.1347 65.3829 58.1645 59.6802C62.6213 51.3074 69.1933 45.1545 77.702 41.0148C83.7756 38.0559 90.1947 36.3003 96.8686 35.3518C98.828 35.0516 100.776 34.995 102.832 34.8931ZM112.482 149.287C116.312 151.084 120.45 152.133 124.674 152.379C132.367 152.837 139.656 151.226 146.293 147.217C154.977 141.976 160.603 134.447 162.319 124.378C163.755 115.954 161.818 108.111 156.778 101.216C150.305 92.3561 141.417 87.7463 130.482 87.0979C124.119 86.7213 118.009 87.7831 112.235 90.5694C110.409 91.45 108.724 92.5741 106.997 93.6274C105.564 94.4995 104.859 94.4571 103.834 93.2565C101.86 90.9479 99.8521 88.6694 97.8115 86.4212C96.8828 85.4018 97.047 84.5694 98.1994 83.6944C99.1565 82.9696 100.181 82.3155 101.184 81.6727C108.408 77.042 116.752 74.454 125.328 74.1833C128.115 74.0814 130.904 74.1069 133.69 74.0248C135.12 73.9823 135.213 73.8464 134.865 72.4334C134.363 70.4083 133.614 68.4522 132.636 66.609C126.88 55.7104 117.765 49.6538 105.607 48.3032C98.8846 47.5585 92.3665 48.8695 86.1484 51.5C79.6614 54.2352 74.4797 58.5505 71.0139 64.7402C68.3342 69.4881 66.7504 74.7753 66.3787 80.2145C65.9658 85.3468 67.0267 90.4903 69.4368 95.0403C71.9852 99.8992 75.6152 103.79 80.089 106.916C82.5241 108.615 84.9837 110.282 87.4679 111.916C88.0626 112.31 88.4363 112.65 88.1135 113.428C86.9809 116.172 85.9163 118.941 84.761 121.677C84.1154 123.206 83.5406 123.421 81.9295 122.903C79.5085 122.124 77.2829 120.92 75.0942 119.655C67.2084 115.107 61.1829 108.782 57.1678 100.596C56.2022 98.6137 55.4009 96.5694 54.5288 94.5675C53.9936 94.5392 53.6793 94.8506 53.3452 95.1536C51.9549 96.4363 50.491 97.6539 49.197 99.0271C45.097 103.382 42.0304 108.337 40.8469 114.289C40.139 117.851 40.1588 121.439 40.5637 125.049C41.13 130.214 42.8997 134.922 46.0908 138.96C54.0021 148.958 64.1928 153.967 77.1697 152.979C84.6704 152.413 91.35 149.924 97.2169 145.334C103.22 140.611 107.272 134.551 108.922 127.02C109.41 124.728 109.626 122.387 109.565 120.046C109.534 118.276 110.109 117.698 111.711 117.497C114.033 117.214 116.352 116.931 118.677 116.69C119.555 116.6 120.41 116.362 121.313 116.407C122.882 116.492 123.128 116.673 123.332 118.279C123.398 118.717 123.419 119.161 123.394 119.604C123.19 122.124 123.207 124.652 122.749 127.161C121.792 132.371 120.155 137.318 117.369 141.831C115.837 144.292 114.181 146.702 112.482 149.295V149.287Z" fill="url(#paint1_linear_1_5)"/>
<defs>
<linearGradient id="paint0_linear_1_5" x1="23.1639" y1="212.206" x2="219.224" y2="4.86767" gradientUnits="userSpaceOnUse">
<stop stop-color="#0582CA"/>
<stop offset="0.21" stop-color="#04649B"/>
<stop offset="0.59" stop-color="#022E48"/>
<stop offset="0.87" stop-color="#000D14"/>
<stop offset="1"/>
</linearGradient>
<linearGradient id="paint1_linear_1_5" x1="15.3376" y1="204.807" x2="211.398" y2="-2.53406" gradientUnits="userSpaceOnUse">
<stop stop-color="#0582CA"/>
<stop offset="0.21" stop-color="#04649B"/>
<stop offset="0.59" stop-color="#022E48"/>
<stop offset="0.87" stop-color="#000D14"/>
<stop offset="1"/>
</linearGradient>
</defs>
</svg>
