<svg id="Layer_1" data-name="Layer 1" xmlns="http://www.w3.org/2000/svg" viewBox="0 0 1080 1080">
  <g>
    <path d="M773.12,677.7H306.88a21.11,21.11,0,0,1-21.09-21.09V375.09A21.11,21.11,0,0,1,306.88,354H773.12a21.11,21.11,0,0,1,21.09,21.09V656.61A21.11,21.11,0,0,1,773.12,677.7ZM306.88,362.47a12.63,12.63,0,0,0-12.62,12.62V656.61a12.64,12.64,0,0,0,12.62,12.62H773.12a12.64,12.64,0,0,0,12.62-12.62V375.09a12.63,12.63,0,0,0-12.62-12.62Z"/>
    <polygon points="348.64 617.14 342.65 611.15 435.23 518.57 502.01 585.35 625.31 531.8 736.95 417.14 743.02 423.05 630.22 538.91 500.1 595.42 435.23 530.55 348.64 617.14"/>
    <g>
      <rect x="472.1" y="693.38" width="53.77" height="8.47" transform="translate(-346.9 839.48) rotate(-63.95)"/>
      <rect x="575.25" y="670.73" width="8.47" height="53.77" transform="translate(-247.55 325.48) rotate(-26.06)"/>
      <rect x="445.24" y="717.53" width="189.53" height="8.47"/>
    </g>
    <circle cx="345.95" cy="614.15" r="18.64"/>
    <circle cx="435.77" cy="526.02" r="18.64"/>
    <circle cx="502.72" cy="584.49" r="18.64"/>
    <circle cx="623.04" cy="538.73" r="18.64"/>
    <circle cx="739.98" cy="424.33" r="18.64"/>
  </g>
</svg>
