<svg id="Layer_1" data-name="Layer 1" xmlns="http://www.w3.org/2000/svg" viewBox="0 0 1080 1080">
  <defs>
    <style>
      .cls-1, .cls-2 {
        fill: none;
        stroke: #000;
        stroke-miterlimit: 10;
        stroke-width: 10px;
      }

      .cls-2 {
        stroke-linecap: round;
      }
    </style>
  </defs>
  <g>
    <path class="cls-1" d="M398,350c0-10.71,16.73-16.07,24.3-8.5h0a12,12,0,0,0,17,0l15.13-15.12a12,12,0,0,1,17,0l20.94,20.93a12,12,0,0,0,17,0l23.83-23.83a12,12,0,0,1,17,0l21.06,21.06a12,12,0,0,0,17,0l15.9-15.9a12,12,0,0,1,17,0L634,341.44a12,12,0,0,0,17,0l10.52-10.52a12,12,0,0,1,20.52,8.5v387c0,10.71-13,30.28-20.52,22.71L651,738.56a12,12,0,0,0-17,0l-12.84,12.83a12,12,0,0,1-17,0l-15.9-15.9a12,12,0,0,0-17,0l-21.06,21.06a12,12,0,0,1-17,0l-23.83-23.83a12,12,0,0,0-17,0l-20.94,20.93a12,12,0,0,1-17,0s-2-3.47-8.4-7.73c-5.51-3.69-12.3-4.69-17,0l-10.52,10.52A12,12,0,0,1,398,748V346.79"/>
    <line class="cls-2" x1="446.7" y1="417.81" x2="524.89" y2="417.81"/>
    <line class="cls-2" x1="616.75" y1="470.84" x2="446.7" y2="470.84"/>
    <line class="cls-2" x1="616.75" y1="523.87" x2="446.7" y2="523.87"/>
    <line class="cls-2" x1="616.75" y1="576.9" x2="446.7" y2="576.9"/>
    <line class="cls-2" x1="616.75" y1="629.93" x2="446.7" y2="629.93"/>
  </g>
</svg>
