<svg id="Layer_1" data-name="Layer 1" xmlns="http://www.w3.org/2000/svg" viewBox="0 0 1080 1080">
  <defs>
    <style>
      .cls-1 {
        fill: none;
        stroke: #000;
        stroke-miterlimit: 10;
        stroke-width: 10px;
      }
    </style>
  </defs>
  <g>
    <path d="M321.77,599.88A27.78,27.78,0,1,1,294,627.66a27.77,27.77,0,0,1,27.77-27.78m0-10a37.78,37.78,0,1,0,37.77,37.78,37.82,37.82,0,0,0-37.77-37.78Z"/>
    <path d="M641.16,599.88a27.78,27.78,0,1,1-27.78,27.78,27.77,27.77,0,0,1,27.78-27.78m0-10a37.78,37.78,0,1,0,37.77,37.78,37.83,37.83,0,0,0-37.77-37.78Z"/>
    <path d="M723.61,599.88a27.78,27.78,0,1,1-27.78,27.78,27.77,27.77,0,0,1,27.78-27.78m0-10a37.78,37.78,0,1,0,37.77,37.78,37.83,37.83,0,0,0-37.77-37.78Z"/>
    <line class="cls-1" x1="611.47" y1="639.02" x2="349.73" y2="639.02"/>
    <polyline class="cls-1" points="792.99 593.81 792.99 639.02 752.43 639.02"/>
    <line class="cls-1" x1="694.78" y1="639.02" x2="669.11" y2="639.02"/>
    <path class="cls-1" d="M293,639h-5.63a20.32,20.32,0,0,1-20.26-21.89l4.58-58.79a20.82,20.82,0,0,1,20.76-19.21h96.4V496.61H337.62a13.73,13.73,0,0,0-13.27,10.18l-8.67,32.34"/>
    <rect class="cls-1" x="436.33" y="424.57" width="376.67" height="169.24"/>
    <path class="cls-1" d="M340.94,496.61,385.07,459a49.78,49.78,0,0,1,32.26-11.87h19"/>
  </g>
</svg>
