<svg width="46" height="45" viewBox="0 0 46 45" fill="none" xmlns="http://www.w3.org/2000/svg">
<path d="M35.1723 21.2949C34.7727 21.2949 34.373 21.2691 33.9734 21.2305V42.977C33.9734 42.9898 33.9605 43.0027 33.9477 43.0027H6.05234C6.03945 43.0027 6.02656 42.9898 6.02656 42.977V15.0687V15.0559C6.02656 15.043 6.03945 15.043 6.05234 15.043H25.1949C24.9371 14.5145 24.718 13.9602 24.5504 13.3801V13.3672H6.05234C5.975 13.3672 5.89766 13.3672 5.82031 13.3801C4.99531 13.4961 4.35078 14.1922 4.33789 15.0559V42.9641C4.33789 43.9051 5.09844 44.6656 6.03945 44.6656H33.9477C34.8887 44.6656 35.6492 43.9051 35.6492 42.9641V21.282C35.4945 21.2949 35.3398 21.2949 35.1723 21.2949Z" fill="#5A55CA"/>
<path d="M25.195 15.043C24.9372 14.5145 24.718 13.9602 24.5504 13.3801H2.12075C2.10786 13.3801 2.09497 13.3672 2.09497 13.3543V11.0727C2.09497 11.0598 2.10786 11.0469 2.12075 11.0469H24.125C24.0993 10.7633 24.0993 10.4926 24.0993 10.209C24.0993 9.92539 24.1122 9.6418 24.125 9.37109H2.12075C1.17974 9.37109 0.419189 10.1316 0.419189 11.0727V13.3543C0.419189 14.2953 1.17974 15.0559 2.12075 15.0559H25.2079C25.195 15.0559 25.195 15.043 25.195 15.043Z" fill="#5A55CA"/>
<path d="M26.6773 24.711H13.3227C11.9305 24.711 10.7832 23.5766 10.7832 22.1715C10.7832 20.7793 11.9176 19.6321 13.3227 19.6321H26.6902C28.0824 19.6321 29.2297 20.7665 29.2297 22.1715C29.2168 23.5766 28.0824 24.711 26.6773 24.711ZM13.3227 20.5473C12.4203 20.5473 11.6855 21.2821 11.6855 22.1844C11.6855 23.0868 12.4203 23.8215 13.3227 23.8215H26.6902C27.5926 23.8215 28.3273 23.0868 28.3273 22.1844C28.3273 21.2821 27.5926 20.5473 26.6902 20.5473H13.3227Z" fill="#5A55CA"/>
<path d="M45.0207 10.209C45.0207 4.91094 40.8828 0.592578 35.5977 0.360547C35.443 0.360547 35.3012 0.347656 35.1723 0.347656C34.8114 0.347656 34.4633 0.360547 34.1153 0.399219C30.7379 0.760156 27.8375 2.79687 26.3293 5.85195C26.3164 5.87773 26.3035 5.90352 26.2906 5.9293C26.0715 6.39336 25.8782 6.8832 25.7364 7.37305L25.7235 7.41172C25.5301 8.08203 25.4012 8.76523 25.3496 9.44844C25.3367 9.69336 25.3239 9.93828 25.3239 10.1961C25.3239 10.441 25.3367 10.6988 25.3496 10.9437C25.5301 13.4187 26.6387 15.7133 28.4563 17.402C30.2867 19.1035 32.6715 20.0445 35.1723 20.0445C40.5992 20.0574 45.0207 15.6488 45.0207 10.209ZM42.9582 10.209C42.9582 14.5016 39.4649 17.9949 35.1723 17.9949C31.1246 17.9949 27.7086 14.8367 27.3992 10.802C27.3864 10.6086 27.3735 10.4152 27.3735 10.209C27.3735 10.0156 27.3864 9.80937 27.3992 9.61601C27.4379 9.06172 27.541 8.52031 27.6957 7.9918L27.7086 7.95312C27.8246 7.5793 27.9664 7.20547 28.134 6.84453L28.1598 6.79297C29.3199 4.39531 31.6918 2.73242 34.3215 2.46172C34.7082 2.42305 35.1207 2.41016 35.5074 2.42305C39.684 2.60352 42.9582 6.03242 42.9582 10.209Z" fill="#5A55CA"/>
<path d="M35.1722 16.1258L32.9808 12.336H34.5277V5.32349C34.5277 4.96255 34.8113 4.67896 35.1722 4.67896C35.5332 4.67896 35.8168 4.96255 35.8168 5.32349V12.336H37.3636L35.1722 16.1258Z" fill="#5A55CA"/>
</svg>
