<svg width="36" height="39" viewBox="0 0 36 39" fill="none" xmlns="http://www.w3.org/2000/svg">
<path d="M17.6351 38.16H3.83579C2.03425 38.16 0.572266 36.6981 0.572266 34.8965V8.37327C0.572266 6.57173 2.03425 5.10974 3.83579 5.10974H30.3496C32.1512 5.10974 33.6131 6.57173 33.6131 8.37327V19.0128C33.6131 19.4844 33.2359 19.8616 32.7642 19.8616C32.2926 19.8616 31.9153 19.4844 31.9153 19.0128V8.37327C31.9153 7.50551 31.2079 6.80753 30.3496 6.80753H3.83579C2.96804 6.80753 2.27006 7.51494 2.27006 8.37327V34.8871C2.27006 35.7548 2.97747 36.4528 3.83579 36.4528H17.6351C18.1067 36.4528 18.4839 36.8301 18.4839 37.3017C18.4839 37.7733 18.1067 38.16 17.6351 38.16Z" fill="#5A55CA"/>
<path d="M24.3036 6.80753C23.832 6.80753 23.4547 6.43024 23.4547 5.95864V1.70473C23.4547 1.23312 23.832 0.855835 24.3036 0.855835C24.7752 0.855835 25.1525 1.23312 25.1525 1.70473V5.95864C25.1525 6.43024 24.7752 6.80753 24.3036 6.80753Z" fill="#5A55CA"/>
<path d="M9.57997 6.80753C9.10837 6.80753 8.73108 6.43024 8.73108 5.95864V1.70473C8.73108 1.23312 9.10837 0.855835 9.57997 0.855835C10.0516 0.855835 10.4289 1.23312 10.4289 1.70473V5.95864C10.4289 6.43024 10.0516 6.80753 9.57997 6.80753Z" fill="#5A55CA"/>
<path d="M32.7643 12.7875H1.41176C0.940153 12.7875 0.562866 12.4102 0.562866 11.9386C0.562866 11.467 0.940153 11.0897 1.41176 11.0897H32.7548C33.2265 11.0897 33.6037 11.467 33.6037 11.9386C33.6037 12.4102 33.2265 12.7875 32.7643 12.7875Z" fill="#5A55CA"/>
<path d="M29.3687 32.0008C29.1518 32.0008 28.9348 31.916 28.765 31.7556L26.3315 29.3221V25.9265C26.3315 25.4549 26.7088 25.0776 27.1804 25.0776C27.652 25.0776 28.0293 25.4549 28.0293 25.9265V28.6241L29.9629 30.5577C30.2931 30.8879 30.2931 31.4255 29.9629 31.7556C29.8026 31.916 29.5856 32.0008 29.3687 32.0008Z" fill="#5A55CA"/>
<path d="M27.1804 37.066C22.719 37.066 19.0876 33.4346 19.0876 28.9732C19.0876 24.5118 22.719 20.8804 27.1804 20.8804C31.6419 20.8804 35.2732 24.5118 35.2732 28.9732C35.2732 33.4346 31.6419 37.066 27.1804 37.066ZM27.1804 22.5687C23.6528 22.5687 20.7854 25.4361 20.7854 28.9637C20.7854 32.4914 23.6528 35.3587 27.1804 35.3587C30.7081 35.3587 33.5755 32.4914 33.5755 28.9637C33.5755 25.4361 30.7081 22.5687 27.1804 22.5687Z" fill="#5A55CA"/>
</svg>
