<svg width="44" height="36" viewBox="0 0 44 36" fill="none" xmlns="http://www.w3.org/2000/svg">
<path d="M41.6189 0.106812H2.38111C1.07947 0.106812 0.0230713 1.16321 0.0230713 2.46485V23.5929C0.0230713 24.8945 1.07947 25.9509 2.38111 25.9509H41.6189C42.9206 25.9509 43.977 24.8945 43.977 23.5929V2.46485C43.977 1.16321 42.9206 0.106812 41.6189 0.106812ZM1.72086 9.30317C5.67294 8.90702 8.82328 5.75668 9.21943 1.8046H34.7712C35.1673 5.75668 38.3177 8.90702 42.2697 9.30317V16.7451C38.3177 17.1413 35.1673 20.2916 34.7712 24.2437H9.21943C8.82328 20.2916 5.67294 17.1413 1.72086 16.7451V9.30317ZM42.2792 2.46485V7.59595C39.2609 7.20923 36.8745 4.82289 36.4878 1.8046H41.6189C41.9868 1.8046 42.2792 2.097 42.2792 2.46485ZM2.38111 1.8046H7.51221C7.12549 4.82289 4.73915 7.20923 1.72086 7.59595V2.46485C1.72086 2.097 2.01326 1.8046 2.38111 1.8046ZM1.72086 23.5929V18.4618C4.73915 18.8485 7.12549 21.2349 7.51221 24.2532H2.38111C2.01326 24.2532 1.72086 23.9513 1.72086 23.5929ZM41.6189 24.2532H36.4878C36.8745 21.2349 39.2609 18.8485 42.2792 18.4618V23.5929C42.2792 23.9513 41.9868 24.2532 41.6189 24.2532Z" fill="#5A55CA"/>
<path d="M40.1098 28.7806H3.89028C3.41867 28.7806 3.04138 29.1579 3.04138 29.6295C3.04138 30.1011 3.41867 30.4784 3.89028 30.4784H40.1098C40.5814 30.4784 40.9587 30.1011 40.9587 29.6295C40.9587 29.1579 40.5814 28.7806 40.1098 28.7806Z" fill="#5A55CA"/>
<path d="M37.0915 33.308H6.90859C6.43698 33.308 6.05969 33.6853 6.05969 34.1569C6.05969 34.6285 6.43698 35.0058 6.90859 35.0058H37.0915C37.5631 35.0058 37.9404 34.6285 37.9404 34.1569C37.9404 33.6853 37.5631 33.308 37.0915 33.308Z" fill="#5A55CA"/>
<path d="M22 21.4235C26.6312 21.4235 30.3946 17.6601 30.3946 13.0289C30.3946 8.39771 26.6312 4.63428 22 4.63428C17.3688 4.63428 13.6053 8.39771 13.6053 13.0289C13.6053 17.6601 17.3688 21.4235 22 21.4235ZM22 6.33207C25.6879 6.33207 28.6968 9.34093 28.6968 13.0289C28.6968 16.7169 25.6879 19.7257 22 19.7257C18.312 19.7257 15.3031 16.7169 15.3031 13.0289C15.3031 9.34093 18.312 6.33207 22 6.33207Z" fill="#5A55CA"/>
</svg>
