<svg width="46" height="45" viewBox="0 0 46 45" fill="none" xmlns="http://www.w3.org/2000/svg">
<path d="M35.1723 21.2949C34.7727 21.2949 34.373 21.2691 33.9734 21.2305V42.977C33.9734 42.9898 33.9605 43.0027 33.9477 43.0027H6.05234C6.03945 43.0027 6.02656 42.9898 6.02656 42.977V15.0687V15.0559C6.02656 15.043 6.03945 15.043 6.05234 15.043H25.1949C24.9371 14.5145 24.718 13.9602 24.5504 13.3801V13.3672H6.05234C5.975 13.3672 5.89766 13.3672 5.82031 13.3801C4.99531 13.4961 4.35078 14.1922 4.33789 15.0559V42.9641C4.33789 43.9051 5.09844 44.6656 6.03945 44.6656H33.9477C34.8887 44.6656 35.6492 43.9051 35.6492 42.9641V21.282C35.4945 21.2949 35.3398 21.2949 35.1723 21.2949Z" fill="#5A55CA"/>
<path d="M25.195 15.043C24.9372 14.5145 24.718 13.9602 24.5504 13.3801H2.12075C2.10786 13.3801 2.09497 13.3672 2.09497 13.3543V11.0727C2.09497 11.0598 2.10786 11.0469 2.12075 11.0469H24.125C24.0993 10.7633 24.0993 10.4926 24.0993 10.209C24.0993 9.92539 24.1122 9.6418 24.125 9.37109H2.12075C1.17974 9.37109 0.419189 10.1316 0.419189 11.0727V13.3543C0.419189 14.2953 1.17974 15.0559 2.12075 15.0559H25.2079C25.195 15.0559 25.195 15.043 25.195 15.043Z" fill="#5A55CA"/>
<path d="M26.6773 24.711H13.3227C11.9305 24.711 10.7832 23.5766 10.7832 22.1715C10.7832 20.7793 11.9176 19.6321 13.3227 19.6321H26.6902C28.0824 19.6321 29.2297 20.7665 29.2297 22.1715C29.2168 23.5766 28.0824 24.711 26.6773 24.711ZM13.3227 20.5473C12.4203 20.5473 11.6855 21.2821 11.6855 22.1844C11.6855 23.0868 12.4203 23.8215 13.3227 23.8215H26.6902C27.5926 23.8215 28.3273 23.0868 28.3273 22.1844C28.3273 21.2821 27.5926 20.5473 26.6902 20.5473H13.3227Z" fill="#5A55CA"/>
<path d="M35.1723 0.360596C32.6715 0.360596 30.2867 1.30161 28.4563 3.00317C26.6387 4.70474 25.5301 6.99927 25.3496 9.46138C25.3367 9.7063 25.3239 9.95122 25.3239 10.209C25.3239 10.454 25.3367 10.7118 25.3496 10.9567C25.4012 11.6399 25.5301 12.336 25.7235 12.9934L25.7364 13.0321C25.8782 13.5219 26.0715 14.0118 26.2906 14.4758C26.3035 14.5016 26.3164 14.5274 26.3293 14.5532C27.8246 17.6083 30.7379 19.645 34.1153 20.0059C34.4633 20.0446 34.8242 20.0575 35.1723 20.0575C35.3012 20.0575 35.443 20.0575 35.5977 20.0446C40.8828 19.8254 45.0207 15.4942 45.0207 10.1961C45.0207 4.78208 40.5992 0.360596 35.1723 0.360596ZM35.5203 17.995C35.1336 18.0079 34.734 17.995 34.3344 17.9563C31.6918 17.6727 29.3328 16.0098 28.1727 13.625L28.1469 13.5735C27.9793 13.2126 27.8246 12.8387 27.7215 12.4649L27.7086 12.4262C27.5539 11.8977 27.4508 11.3434 27.4121 10.802C27.3992 10.6086 27.3864 10.4024 27.3864 10.209C27.3864 10.0157 27.3992 9.80942 27.4121 9.61606C27.7086 5.5813 31.1246 2.4231 35.1852 2.4231C39.4778 2.4231 42.9711 5.91646 42.9711 10.209C42.9582 14.3985 39.684 17.8145 35.5203 17.995Z" fill="#5A55CA"/>
<path d="M35.1722 4.29224L32.9808 8.08208H34.5277V15.0946C34.5277 15.4555 34.8113 15.7391 35.1722 15.7391C35.5332 15.7391 35.8168 15.4555 35.8168 15.0946V8.08208H37.3636L35.1722 4.29224Z" fill="#5A55CA"/>
</svg>
